<svg id="Layer_1" data-name="Layer 1" xmlns="http://www.w3.org/2000/svg" width="20cm" height="20cm" viewBox="0 0 566.93 566.93"><defs><style>.cls-1{fill:#fff;}</style></defs><title>logo-hvid-transparent</title><path class="cls-1" d="M113.67,219.41c11.19,6.47,20,13.36,31.45,15.33,13.73,2.38,27.39,5.13,41.08,7.75,3.06.58,6.07,1.44,9.15,1.81a3.83,3.83,0,0,0,3.21-1.46c.36-.69-.44-2.59-1.27-3.17-8.8-6.14-11-17-17.47-24.4-8.28-9.43-12.54-21.53-22.7-29.79-6.71-5.46-13.35-11.07-20.93-14.77-12.26-6-24.7-12-38.56-13.85C90.82,155.94,84.84,152.45,86,144c6.59,2.55,13,5.31,19.61,7.49s13.33,3.14,19.63,5.61c6.7,2.63,13,6.34,19.4,9.7,5.39,2.82,10.69,5.82,17.29,9.42-3.06-8.19-5-15.62-10.8-21.26-.13-.13-.34-.19-.44-.34-4.21-6.33-8.52-12.54-16.33-15-.18-.05.49-4,.76-4,3.35,0,7.34-.65,9.94.91,7.45,4.44,12.33,11.41,16.79,18.88,7.48,12.53,12.12,25.88,15.69,40,2,7.94,6.69,15.38,11,22.51a172.19,172.19,0,0,0,15.64,21.71c2.58,3.05,7,4.54,11.68,7.41,0-7.06.18-13.22,0-19.37-.43-12.23-1.3-24.45-1.54-36.69-.1-4.95,1.49-9.95,1.32-14.89a119.41,119.41,0,0,0-2.3-17.61c-2-10.6-8.06-19.3-13.27-28.44-1.88-3.29-2.55-7.27-3.76-10.93l2.13-1c2.93,3.84,6.36,7.39,8.68,11.57,4.23,7.6,7.31,15.86,11.76,23.3,6.9,11.54,4.92,24,4.91,36.29,0,6.42-1.57,12.85-1.51,19.26.14,14.11.79,28.21,1.43,42.3a8.51,8.51,0,0,0,2.16,5.39c4.74,4.48,9.91,8.5,14.74,12.89,1,.93,1.27,2.7,1.87,4.09-1.57.26-3.52,1.24-4.66.66-4.15-2.16-8.55-4.28-11.91-7.43-9.7-9.12-22.13-10.94-34.23-13.67-11-2.49-22.18-4.61-33.29-6.85-6.34-1.27-12.65-2.88-19-3.58-10.12-1.11-16.26-8.88-24-13.83C113.73,227.41,114.26,223.17,113.67,219.41Z"/><path class="cls-1" d="M381.23,275.66c1.64-2.47,3.7-4.75,4.83-7.43,3.11-7.35,6.07-14.79,8.64-22.35,2.36-6.93,4.05-14.08,6.19-21.08,2.59-8.48,5-17,8.14-25.33,2.53-6.77,5.31-13.62,9.15-19.69,4.12-6.53,9.6-12.2,14.49-18.24l1.45.86c-.26,1.35-.18,2.89-.82,4-4.44,7.87-9.63,15.37-13.39,23.54s-6.36,17-9.14,25.71c-.69,2.14-.16,4.68-.19,7,1.62-1.74,3.21-3.52,4.86-5.22,7.47-7.69,14.76-15.56,22.48-23,9.42-9.07,19.43-17.53,28.78-26.67A269.84,269.84,0,0,0,486,146.74c2.24-2.69,2.85-6.69,4.45-10a34.34,34.34,0,0,1,3.36-4.71l1.87.7c0,1.72.37,3.53-.06,5.13-3.23,11.79-9.11,21.85-18.74,29.74-9.39,7.7-18.43,15.83-27.56,23.86-6.08,5.36-12.69,10.31-17.89,16.43-7.6,9-13.62,19.27-21.28,28.17s-10.1,19.74-15.05,29.64c-3.69,7.37-8.67,14.1-13.07,21.11l1,1.39c4.23-1.74,8.81-2.93,12.6-5.34a201.17,201.17,0,0,0,19.76-14.33c4.58-3.77,9.36-7.73,10.48-14.26.13-.75,1.42-1.3,2.17-1.94.66.95,1.7,1.83,1.91,2.87,1.09,5.64-3.58,15-8.8,17.86-.8.45-1.87.64-2.42,1.29-7.49,8.94-18.14,12.46-28.26,17.12-5,2.31-9.21,6.35-13.75,9.66-8.77,6.39-17,13.17-22.69,22.8-3.86,6.56-8.69,12.57-13.25,18.69-1,1.33-2.69,2.12-4.06,3.15l-1.66-.66c.19-2.37-.36-5.16.7-7a197.68,197.68,0,0,1,12-18.77c4.76-6.53,10.56-12.32,15.06-19,3.59-5.35,7-11.27,8.55-17.43,2.52-10.37,2.23-21.5,5.32-31.64,5.53-18.1.87-36.47,3.25-54.49,1.64-12.37,4.76-24.55,7.36-36.78a121.58,121.58,0,0,1,3.53-13.33,129.69,129.69,0,0,1,5.73-14.53c.85-1.81,2.93-3,4.45-4.53l1.11,1c-2.76,12.06-3.59,25-8.71,36-9,19.34-5.9,39.42-7.6,59.27-1.27,14.67-3.82,29.24-5.79,43.86-.13.92-.31,1.84-.35,2.77-.05,1.46,0,2.93,0,4.39Z"/><path class="cls-1" d="M273.91,191.23c-4.52,12.45-9.9,24.66-13.32,37.41s-4.92,26.24-7.4,40.14c1.48-.65,2.15-.73,2.38-1.08,4.13-6.46,8.08-13,12.34-19.4,3.79-5.66,7.86-11.14,11.92-16.62,2.93-3.94,5.89-7.87,9.1-11.58,5.11-5.9,10-12.11,15.8-17.27,6-5.32,8.93-12.25,10.86-19.24,4.21-15.19,6.93-30.79,10.71-46.1,2.5-10.13,4.6-20.62,9-29.93,4.58-9.6,11.46-18.2,18-26.77,3.43-4.53,8-8.2,12.37-12,1.16-1,3.19-1,4.82-1.54l.9,1.38c-2.08,2-4.18,4-6.23,6.12C356,84,346.77,93.15,341.74,105.6s-10.75,24.58-11.9,38.48c-1,11.82-4,23.5-6.6,35.14-.79,3.56-3.11,6.78-5.35,11.44,2.66-.43,4.79-.12,5.69-1,8.32-8.37,16.08-17.32,24.71-25.35,7.15-6.66,7.23-16.12,11.25-24,1-2,2.23-3.83,4.16-7.11,1.35,5.37,2.78,8.62-.79,12.13-1.65,1.63-2.36,4.63-2.68,7.12-1.31,10.41-8.53,17-15.22,23.85-4.8,4.9-10,9.41-15.25,13.89-10.14,8.7-21,16.71-30.44,26.07-7.39,7.29-13.39,16-19.63,24.43-6.75,9.09-13.62,18.18-19.37,27.91-4,6.84-6.44,14.68-9.3,22.18-3.82,10-7.35,20.19-11,30.28-1.09,3-2.31,5.87-2.44,9.6a40.55,40.55,0,0,0,3.59-2.75c10-9.46,20.48-18.46,29.69-28.62,7-7.71,12.86-16.6,18.29-25.54,6-9.91,10.91-20.5,16.47-30.7.85-1.55,2.74-2.54,4.14-3.8l1.84,1.16c-.93,3.57-1.32,7.4-2.88,10.66A195.8,195.8,0,0,1,296.87,273c-7.71,11.84-15.19,23.87-26.34,33.15-7,5.86-13,12.95-19.53,19.43-6.74,6.71-14,12.94-20.24,20.1-9.28,10.67-17.8,21.94-24,34.88-3.57,7.46-9,14-12.43,21.56-3.87,8.56-6.5,17.69-9.45,26.64-1.06,3.23-1.47,6.66-2.41,11.05-3-3.11-3.1-5-2.74-8.39,1.45-13.29,6.7-25.18,12.3-36.91,3.48-7.29,8.15-14,12.41-20.91,4.11-6.64,8.59-13,12.53-19.77,5-8.62,9.55-17.55,14.56-26.19,8.07-13.88,11.6-29.09,14.06-44.74,2-12.5,4.6-24.89,7-37.31,1.67-8.68,2.9-17.5,5.37-26,2.08-7.08,5.68-13.71,8.57-20.55.65-1.52.87-3.31,1.82-4.57a36.46,36.46,0,0,1,4.61-4.42Z"/><path class="cls-1" d="M231.53,309.9c-11.77-6.68-21.69,1.52-32.34,4.19-1.55.39-2.85,1.69-4.31,2.46-6.95,3.67-7.44,5.6-3.19,11.56,2.83,4,5.38,8.13,8.22,12.09a104.77,104.77,0,0,0,7,8.94c3.47,3.88,3.31,6.78-1.67,11.28-1.68-2-3.47-4-5-6.08-5.79-8.11-11.63-16.2-17.17-24.48-2.73-4.08-6.43-4-9.79-2.28-8.64,4.44-18.1,4.72-27.3,6.38-2,.35-4,1.5-5.87,1.19-2.2-.37-4.2-1.93-6.29-3,1.49-1,2.87-2.51,4.5-2.84,8.29-1.73,16.69-2.95,24.95-4.79,2.32-.51,4.56-2.25,6.37-3.92,2.2-2,.41-5.13-2.89-6.08-7.43-2.15-14.66-5.27-22.22-6.68S129,306.58,121.11,306c-.17,0-.35.12-.53.15-9.47,1.3-19,3.89-28.39,3.53-9.15-.35-18.26-3.44-27.25-5.85-5.64-1.51-11-3.93-16.5-6.05-3.9-1.52-4.28-2.34-3.92-8.34,4.35,1.17,8.48,2.24,12.58,3.39q13.37,3.75,26.72,7.56c15.72,4.5,30.68-1.88,46.51-2.6-2-6.86-7.91-5.83-12.17-7.37-6.57-2.36-13.34-4.18-19.85-6.66-1.3-.49-2.93-3.51-2.49-4.37.8-1.57,3.08-3.36,4.69-3.32a35.5,35.5,0,0,1,9.69,2.15c6.94,2.26,13.8,4.78,20.71,7.12,9.92,3.36,20.06,5.82,29.28,11.38,5.89,3.56,11.26,7.13,15.33,12.68,3.44,4.68,9.73,4.69,16,.33,10.23-7.14,21.67-10,34-9.14C231.55,301,233.72,304.41,231.53,309.9Z"/><path class="cls-1" d="M400.62,417.77c-17.95-22.62-41.26-35.43-69.11-40.82,1.15,11.94,3.64,23,2.86,33.88-.76,10.57.3,21.8-3.9,32l-2.2,0c-.63-2.14-1.85-4.29-1.8-6.41.24-9.78.84-19.56,1.3-29.34.48-10.4-3.17-19.72-7.37-29-3.76-8.29-6.41-17.16-10.88-25-4.24-7.45-10.15-14-15.43-20.82-2.73-3.54-5.85-6.79-8.48-10.4-2.78-3.79-5.29-7.79-7.7-11.83-.75-1.26-.8-2.94-1.16-4.38,4.28-1.8,6.29.33,7.41,3.21,3.53,9.05,10.32,15.65,16.34,22.93,7,8.47,13.12,17.68,19.62,26.57.5.69.94,1.42,2.05,3.11,2.95-5.12,1.81-9.7,1.05-13.92-1.41-7.87-4.54-15.56-5-23.44-.78-13.92,0-27.92,0-41.89,0-10.61,0-21.24-.36-31.85-.17-5-1.35-9.88-1.76-14.84-.09-1,1.18-2.2,1.82-3.3a14.39,14.39,0,0,1,2.44,2.43c3.49,5.55,3.32,11.77,3.5,18.05.32,10.75,1.66,21.48,1.7,32.22,0,9.44-2.18,19-1.51,28.3,1,14.18,3.71,28.23,5.65,42.35.27,2,.32,4.08.44,6.12.37,6.39,2,7.7,8.42,8.62,12.38,1.77,23.7,6.1,34.92,12,11,5.82,18.26,15.51,28,22.5C406.69,408.63,406.34,411.09,400.62,417.77Z"/><path class="cls-1" d="M201,65.38c2.57,3.31,5.29,6.51,7.68,10,7.63,11,14.47,22.55,23,32.76,4.24,5.09,11.3,8,17.36,11.35s12.65,6.32,19,9.4c1.09.53,2.27.86,3.94,1.48,1.07-8.15-2.74-14.54-4.95-21.24-4.42-13.42-9.07-26.77-6.54-41.32,3.27-1.07,4.37-.11,5.11,3.42,2.32,11.13,5.25,22.14,8,33.18,1,3.92,1.9,7.87,3.21,11.67.58,1.67,2.09,3,4,5.67,2.29-8.79,3.79-15.77,6-22.53,1.92-6,5.27-11.63,6.75-17.72,1.53-6.35,1.63-13.06,2.24-19.61.08-.86-.79-1.79-.74-2.65.66-10.7-5.23-19.68-7.66-29.55A74.68,74.68,0,0,1,286.25,21c5.05-.27,9.09,4,10.46,10.08,2.13,9.45,4.86,18.8,6.28,28.36,1.55,10.45-1.29,20.52-4.6,30.47-2.84,8.54-7.43,16.54-7.43,26,0,5.47-2.19,11-1.78,16.37s2.78,10.74,4.4,16.07C298,162.92,304,177.25,301.05,193c-.25,1.35-2.51,2.33-3.83,3.48-.9-1.31-2.32-2.52-2.6-3.95-1.29-6.58-.48-14.33-3.76-19.57-4.7-7.51-5.94-16.11-10.13-23.47-6.84-12-18-18.71-30.53-24-10.1-4.27-18.89-10.71-27.09-18.56-6.84-6.54-10.37-14.31-14.75-22-2.48-4.34-5.24-8.53-7.55-13-.91-1.75-.94-3.95-1.36-5.95Z"/><path class="cls-1" d="M480.4,312.81c.36,1.22,1,2.62.79,2.79-4.25,3.12-8.3,7.84-13,8.69-7,1.25-14.4,1.51-21.65-2-4.74-2.3-10.79-1.95-16.27-2.66-12.8-1.67-25.59-3.42-38.42-4.79-5.17-.56-10.43-.19-15.64-.32a27.26,27.26,0,0,1-3.92-.7c.9-4.89,3.34-7.26,8-6.69,3.61.45,7.18,1.22,10.77,1.88.53.09,1.3.67,1.5.5,4.83-4.13,9.25-.59,14,.38a13.84,13.84,0,0,0,11.28-2c5-3.22,11.77-3.79,17.87-5,8.39-1.73,16.48-2.83,23.24-9.72,5.08-5.17,13.37-7.07,19-11.84,8.86-7.47,19.4-10.48,29.89-14a5.4,5.4,0,0,1,2.72-.45,35.67,35.67,0,0,1,4.58,1.71c-1.1,1.48-1.88,3.68-3.35,4.31-4.51,2-9.56,2.8-13.91,5-8.5,4.38-17.32,8.56-24.8,14.37A92.68,92.68,0,0,1,445.1,306.8c-3.24,1.09-6.25,2.89-9.38,4.37C441,318.35,465.38,319.38,480.4,312.81Z"/><path class="cls-1" d="M310.86,362.81c1.23,5.36.39,8.69-4.6,10.29a9.32,9.32,0,0,0-4,2.86c-6.69,7.89-13.19,15.94-19.87,23.83-8.4,9.91-13.56,21.44-17.43,33.69a37.88,37.88,0,0,1-3.18,7.37c-.63,1.09-2.33,2.49-3.22,2.29a5.24,5.24,0,0,1-3.26-3,7.42,7.42,0,0,1,.19-4.94c3-7.13,6-14.28,9.49-21.19s6.79-13.83,11.33-19.9c5.21-7,11.53-13.17,17.67-19.41a134,134,0,0,1,12.18-10.49C307.19,363.41,308.87,363.38,310.86,362.81Z"/><path class="cls-1" d="M433.34,377.84c-5.15-2.85-10.13-5.75-15.24-8.4-8.37-4.35-16.52-9.35-25.31-12.58A55,55,0,0,1,369,340.21c-2.2-2.6-5.9-3.87-8.53-6.18-1.45-1.28-2.1-3.45-3.11-5.22a53.11,53.11,0,0,1,5.34-.31c6.73.27,11.31,2.93,14.64,9.5,1.88,3.71,7.17,6.05,11.35,8.15,9.57,4.82,19.51,8.92,29.1,13.7a119,119,0,0,1,14.09,8.71C435.49,371.06,435.46,371.81,433.34,377.84Z"/><path class="cls-1" d="M129.51,470.87v47.6H126V495.82H94.22v22.65H90.75v-47.6h3.47v21.89H126V470.87Z"/><path class="cls-1" d="M175.55,505.07H147.94l-6.05,13.4h-3.74L160,470.87h3.47l21.9,47.6h-3.74Zm-1.29-2.92-12.52-27.47L149.3,502.15Z"/><path class="cls-1" d="M229.61,470.87l-21.22,47.6h-3.47l-21.21-47.6h3.81L206.76,514,226,470.87Z"/><path class="cls-1" d="M239.84,517a19.27,19.27,0,0,1-7.38-4.66l1.57-2.59a18.33,18.33,0,0,0,6.76,4.32,24.36,24.36,0,0,0,9,1.67q6.8,0,10.26-2.59a8,8,0,0,0,3.47-6.73,7.05,7.05,0,0,0-1.83-5.1,12.22,12.22,0,0,0-4.56-2.92,63.32,63.32,0,0,0-7.34-2.11,70.13,70.13,0,0,1-8.4-2.52A13.3,13.3,0,0,1,236,490a10,10,0,0,1-2.21-6.83,11.64,11.64,0,0,1,1.83-6.36,12.49,12.49,0,0,1,5.61-4.59,23,23,0,0,1,9.42-1.7,26.55,26.55,0,0,1,7.75,1.15,23.2,23.2,0,0,1,6.6,3.13l-1.29,2.79a22.35,22.35,0,0,0-6.29-3,23.72,23.72,0,0,0-6.77-1q-6.6,0-10,2.65a8.34,8.34,0,0,0-3.4,6.87,7.06,7.06,0,0,0,1.84,5.1,12.1,12.1,0,0,0,4.55,2.92,69.43,69.43,0,0,0,7.42,2.18,70.12,70.12,0,0,1,8.36,2.51,13.81,13.81,0,0,1,5.34,3.71,9.74,9.74,0,0,1,2.21,6.7,11.26,11.26,0,0,1-1.87,6.32,12.67,12.67,0,0,1-5.75,4.56,23.7,23.7,0,0,1-9.52,1.7A27.74,27.74,0,0,1,239.84,517Z"/><path class="cls-1" d="M317.46,470.87v47.6h-2.85l-32.44-41.35v41.35H278.7v-47.6h2.93L314,512.21V470.87Z"/><path class="cls-1" d="M363.5,505.07H335.89l-6.05,13.4H326.1L348,470.87h3.47l21.9,47.6h-3.74Zm-1.29-2.92L349.7,474.68l-12.45,27.47Z"/><path class="cls-1" d="M388.83,515.68a23,23,0,0,1-8.84-8.63,25.34,25.34,0,0,1,0-24.76,23,23,0,0,1,8.84-8.63,25.39,25.39,0,0,1,12.61-3.13A26.2,26.2,0,0,1,411,472.2a19.66,19.66,0,0,1,7.41,4.92l-2.17,2.25a19.94,19.94,0,0,0-14.62-5.65,21.94,21.94,0,0,0-10.88,2.73A19.83,19.83,0,0,0,383,484a22,22,0,0,0,0,21.42,19.89,19.89,0,0,0,7.69,7.51,21.94,21.94,0,0,0,10.88,2.72,20,20,0,0,0,14.62-5.71l2.17,2.24a19.85,19.85,0,0,1-7.44,5,26.14,26.14,0,0,1-9.49,1.7A25.39,25.39,0,0,1,388.83,515.68Z"/><path class="cls-1" d="M444.14,495,433.47,506v12.51H430v-47.6h3.47v30.6l29.72-30.6h4.21l-20.94,21.62,22.37,26h-4.22Z"/><path class="cls-1" d="M477.8,470.87h3.47v47.6H477.8Z"/><path class="cls-1" d="M471,446s2-6,6-6,8,6,8,6l4-6v12l-4-3s-4,3-7,3S471,446,471,446Z"/></svg>