<svg id="Layer_1" data-name="Layer 1" xmlns="http://www.w3.org/2000/svg" width="20cm" height="20cm" viewBox="0 0 566.93 566.93"><defs><style>.cls-1{fill:#fff;}</style></defs><title>logo hvid</title><rect class="cls-1" x="0.46" y="-0.04" width="566" height="566"/><path d="M138.27,222.8c9.78,5.66,17.53,11.68,27.49,13.4,12,2.08,24,4.49,35.92,6.78,2.67.51,5.31,1.26,8,1.58a3.37,3.37,0,0,0,2.82-1.27c.31-.61-.39-2.27-1.12-2.78-7.69-5.36-9.62-14.9-15.27-21.33-7.24-8.24-11-18.83-19.84-26.05-5.87-4.77-11.68-9.67-18.3-12.9-10.72-5.24-21.6-10.46-33.71-12.11-6-.81-11.19-3.86-10.21-11.27,5.76,2.22,11.37,4.64,17.15,6.54s11.65,2.74,17.16,4.91c5.86,2.3,11.36,5.54,17,8.47,4.71,2.47,9.35,5.09,15.11,8.25-2.67-7.17-4.37-13.66-9.44-18.6-.11-.11-.3-.16-.38-.29-3.69-5.53-7.45-11-14.28-13.15a11.05,11.05,0,0,1,.66-3.48c2.94,0,6.42-.56,8.7.8,6.51,3.89,10.78,10,14.68,16.51,6.54,10.95,10.59,22.63,13.71,35,1.76,6.94,5.85,13.44,9.65,19.68a149.92,149.92,0,0,0,13.67,19c2.25,2.67,6.12,4,10.22,6.47,0-6.17.15-11.55,0-16.93-.38-10.69-1.13-21.38-1.34-32.07-.09-4.34,1.3-8.71,1.16-13a105.63,105.63,0,0,0-2-15.39c-1.71-9.27-7-16.88-11.6-24.87-1.64-2.87-2.23-6.35-3.29-9.55l1.87-.92c2.56,3.35,5.56,6.46,7.58,10.11,3.7,6.64,6.39,13.87,10.29,20.38,6,10.08,4.3,21,4.29,31.72,0,5.62-1.37,11.24-1.32,16.85.12,12.33.69,24.65,1.25,37a7.44,7.44,0,0,0,1.88,4.72c4.15,3.91,8.67,7.42,12.89,11.26.89.82,1.11,2.37,1.64,3.58-1.38.23-3.08,1.09-4.07.58-3.63-1.89-7.48-3.74-10.42-6.5-8.48-8-19.35-9.57-29.93-11.95-9.66-2.18-19.39-4-29.1-6-5.54-1.11-11.06-2.52-16.66-3.13-8.84-1-14.21-7.76-21-12.09C138.32,229.8,138.78,226.09,138.27,222.8Z"/><path d="M372.2,272c1.42-2.16,3.22-4.15,4.21-6.49,2.72-6.43,5.31-12.94,7.56-19.55,2.06-6.05,3.54-12.31,5.41-18.43,2.27-7.41,4.4-14.89,7.12-22.14a93.3,93.3,0,0,1,8-17.22c3.61-5.71,8.4-10.66,12.67-16l1.27.76c-.22,1.18-.16,2.52-.72,3.52-3.88,6.87-8.41,13.43-11.7,20.57s-5.56,14.91-8,22.48c-.6,1.87-.14,4.09-.16,6.15,1.41-1.53,2.8-3.08,4.25-4.57,6.52-6.72,12.89-13.6,19.64-20.09,8.24-7.93,17-15.33,25.17-23.31a239.75,239.75,0,0,0,16.9-18.44c1.95-2.36,2.49-5.85,3.89-8.72a30.32,30.32,0,0,1,2.93-4.12l1.64.62c0,1.49.33,3.08-.06,4.48-2.82,10.3-8,19.1-16.37,26-8.22,6.73-16.12,13.84-24.1,20.86-5.32,4.68-11.09,9-15.64,14.37-6.64,7.83-11.91,16.84-18.61,24.63s-8.83,17.25-13.16,25.9c-3.22,6.45-7.57,12.33-11.42,18.47l.84,1.21c3.69-1.52,7.7-2.56,11-4.67a176.57,176.57,0,0,0,17.27-12.53c4-3.3,8.18-6.75,9.16-12.47.11-.65,1.24-1.13,1.9-1.69.58.83,1.49,1.6,1.67,2.51,1,4.93-3.13,13.07-7.69,15.61-.7.39-1.64.56-2.12,1.13-6.55,7.82-15.86,10.89-24.7,15-4.38,2-8.06,5.55-12,8.44-7.67,5.59-14.89,11.51-19.84,19.94-3.37,5.74-7.59,11-11.58,16.34-.86,1.16-2.35,1.85-3.55,2.75l-1.45-.58c.16-2.07-.32-4.5.61-6.14a174.78,174.78,0,0,1,10.49-16.41c4.16-5.7,9.23-10.76,13.16-16.61,3.15-4.67,6.17-9.85,7.48-15.23,2.21-9.07,1.95-18.8,4.66-27.66,4.83-15.83.76-31.89,2.84-47.65,1.43-10.81,4.16-21.46,6.43-32.15a108.69,108.69,0,0,1,3.08-11.66,116.69,116.69,0,0,1,5-12.7c.75-1.58,2.56-2.66,3.89-4l1,.87c-2.42,10.54-3.14,21.87-7.62,31.46-7.89,16.91-5.15,34.47-6.65,51.82-1.1,12.83-3.33,25.57-5.06,38.34-.11.81-.27,1.62-.3,2.43-.05,1.27,0,2.56,0,3.84Z"/><path d="M278.36,198.16c-3.95,10.89-8.66,21.56-11.64,32.71s-4.31,22.94-6.47,35.09c1.29-.57,1.87-.63,2.07-.94,3.62-5.64,7.07-11.39,10.8-17,3.31-4.95,6.87-9.74,10.42-14.53,2.56-3.45,5.15-6.89,7.95-10.13,4.47-5.16,8.75-10.59,13.82-15.1,5.24-4.65,7.81-10.71,9.5-16.82,3.67-13.28,6.05-26.91,9.36-40.3,2.18-8.86,4-18,7.9-26.17,4-8.39,10-15.91,15.69-23.41,3-4,7-7.16,10.82-10.47,1-.9,2.79-.93,4.21-1.35l.79,1.2c-1.82,1.78-3.66,3.54-5.45,5.36-8,8.09-16.06,16.07-20.46,27s-9.4,21.48-10.41,33.64c-.86,10.34-3.51,20.55-5.77,30.73-.69,3.1-2.71,5.92-4.67,10,2.32-.38,4.18-.11,5-.9,7.27-7.32,14.06-15.14,21.6-22.16,6.26-5.82,6.32-14.1,9.84-21,.88-1.72,1.95-3.35,3.63-6.22,1.18,4.7,2.44,7.54-.68,10.61-1.45,1.42-2.07,4-2.35,6.23-1.15,9.1-7.45,14.86-13.31,20.84-4.19,4.29-8.77,8.23-13.33,12.15-8.86,7.61-18.32,14.61-26.61,22.79-6.46,6.38-11.71,14-17.16,21.36-5.91,8-11.91,15.9-16.94,24.4-3.53,6-5.63,12.84-8.13,19.4-3.34,8.77-6.42,17.65-9.66,26.47-.94,2.59-2,5.14-2.13,8.39a35.78,35.78,0,0,0,3.15-2.4c8.72-8.28,17.89-16.14,26-25,6.12-6.75,11.25-14.52,16-22.33,5.26-8.67,9.53-17.93,14.39-26.84.75-1.36,2.39-2.23,3.62-3.32l1.61,1c-.81,3.12-1.15,6.47-2.52,9.32a170.65,170.65,0,0,1-10.33,19.17c-6.74,10.35-13.27,20.87-23,29-6.14,5.12-11.38,11.32-17.07,17-5.9,5.86-12.26,11.32-17.7,17.57-8.12,9.33-15.57,19.18-21,30.5-3.12,6.52-7.89,12.27-10.87,18.85-3.38,7.48-5.68,15.46-8.26,23.29-.92,2.82-1.29,5.83-2.1,9.66-2.67-2.72-2.72-4.4-2.4-7.33,1.27-11.62,5.86-22,10.75-32.28,3-6.37,7.13-12.25,10.86-18.28,3.59-5.8,7.51-11.4,11-17.28,4.41-7.54,8.35-15.35,12.73-22.9,7.05-12.14,10.14-25.43,12.29-39.12,1.71-10.92,4-21.75,6.13-32.62,1.46-7.58,2.53-15.29,4.7-22.68,1.81-6.19,5-12,7.49-18,.56-1.32.76-2.89,1.59-4a32.1,32.1,0,0,1,4-3.86Z"/><path d="M241.31,301.92c-10.29-5.84-19,1.32-28.28,3.66-1.35.34-2.48,1.48-3.77,2.15-6.07,3.2-6.5,4.89-2.78,10.1,2.47,3.47,4.7,7.11,7.18,10.58a92.69,92.69,0,0,0,6.16,7.81c3,3.39,2.9,5.93-1.46,9.87-1.47-1.79-3-3.47-4.36-5.32-5.06-7.09-10.17-14.16-15-21.4-2.39-3.57-5.63-3.5-8.56-2-7.55,3.88-15.83,4.12-23.87,5.57-1.74.31-3.53,1.32-5.14,1-1.92-.33-3.67-1.68-5.49-2.6,1.3-.85,2.51-2.19,3.93-2.48,7.25-1.51,14.59-2.58,21.82-4.18a13.17,13.17,0,0,0,5.56-3.44c1.93-1.78.36-4.48-2.52-5.31-6.5-1.88-12.82-4.61-19.43-5.84s-13.67-1.13-20.52-1.6c-.15,0-.3.11-.46.13-8.28,1.14-16.6,3.4-24.82,3.09-8-.31-16-3-23.83-5.12-4.93-1.32-9.65-3.43-14.42-5.29-3.41-1.33-3.75-2-3.43-7.29,3.8,1,7.41,2,11,3q11.68,3.28,23.36,6.62c13.74,3.93,26.82-1.64,40.67-2.28-1.76-6-6.92-5.1-10.65-6.44-5.74-2.06-11.66-3.65-17.36-5.83-1.13-.43-2.56-3.06-2.17-3.82.7-1.37,2.69-2.93,4.1-2.9a31.12,31.12,0,0,1,8.47,1.88c6.07,2,12.07,4.18,18.11,6.23,8.67,2.94,17.54,5.08,25.6,9.95,5.15,3.11,9.84,6.23,13.41,11.08,3,4.1,8.5,4.1,14,.29a45.3,45.3,0,0,1,29.73-8C241.33,294.16,243.22,297.12,241.31,301.92Z"/><path d="M389.14,396.23c-15.69-19.78-36.07-31-60.41-35.7,1,10.44,3.17,20.14,2.49,29.63-.66,9.23.26,19.06-3.41,27.94l-1.92,0c-.55-1.87-1.62-3.75-1.58-5.6.21-8.55.74-17.1,1.14-25.65.42-9.1-2.77-17.24-6.44-25.32-3.29-7.25-5.6-15-9.51-21.87-3.71-6.52-8.88-12.22-13.5-18.21-2.38-3.1-5.11-5.94-7.41-9.09-2.43-3.32-4.62-6.82-6.73-10.35a14.54,14.54,0,0,1-1-3.82c3.74-1.58,5.5.28,6.49,2.8,3.08,7.92,9,13.68,14.28,20.05,6.13,7.4,11.47,15.45,17.15,23.23.44.6.83,1.24,1.8,2.72,2.57-4.48,1.58-8.48.92-12.17-1.24-6.88-4-13.61-4.36-20.49-.68-12.17,0-24.41,0-36.63,0-9.28,0-18.57-.32-27.84-.15-4.34-1.18-8.64-1.54-13-.08-.91,1-1.92,1.59-2.88a13,13,0,0,1,2.14,2.12c3,4.86,2.89,10.29,3.06,15.78.27,9.4,1.44,18.78,1.48,28.17,0,8.25-1.91,16.57-1.32,24.74.9,12.4,3.24,24.69,4.94,37,.24,1.77.28,3.56.38,5.35.32,5.58,1.74,6.73,7.37,7.53,10.82,1.55,20.72,5.34,30.52,10.52,9.64,5.09,16,13.56,24.47,19.67C394.45,388.24,394.14,390.38,389.14,396.23Z"/><path d="M214.61,88.13c2.24,2.9,4.62,5.7,6.71,8.7,6.67,9.58,12.65,19.72,20.09,28.64,3.71,4.45,9.89,7,15.18,9.93s11.06,5.52,16.63,8.22c.95.46,2,.75,3.44,1.29.93-7.13-2.4-12.72-4.33-18.57-3.87-11.73-7.93-23.4-5.72-36.13,2.86-.93,3.82-.09,4.47,3,2,9.73,4.59,19.35,7,29,.85,3.43,1.65,6.88,2.8,10.21.51,1.46,1.83,2.63,3.53,5,2-7.68,3.31-13.78,5.2-19.7,1.69-5.26,4.61-10.16,5.9-15.49,1.35-5.55,1.43-11.41,2-17.15.07-.74-.69-1.56-.65-2.31.58-9.36-4.57-17.2-6.7-25.83a65.14,65.14,0,0,1-1-7.58c4.42-.24,8,3.47,9.15,8.81,1.86,8.26,4.25,16.44,5.49,24.79,1.36,9.14-1.13,17.94-4,26.64-2.49,7.47-6.5,14.47-6.5,22.75,0,4.78-1.92,9.62-1.56,14.32s2.44,9.38,3.85,14c3.87,12.75,9.09,25.28,6.53,39.05-.22,1.18-2.19,2-3.35,3-.78-1.14-2-2.2-2.27-3.45-1.13-5.75-.42-12.53-3.29-17.11-4.1-6.56-5.19-14.08-8.86-20.52-6-10.5-15.71-16.36-26.69-21-8.83-3.73-16.51-9.36-23.68-16.23-6-5.72-9.07-12.51-12.9-19.2-2.17-3.8-4.58-7.46-6.6-11.33-.79-1.53-.82-3.45-1.19-5.2Z"/><path d="M458.89,304.46c.32,1.06.9,2.29.69,2.44-3.71,2.73-7.25,6.85-11.39,7.59-6.1,1.1-12.58,1.33-18.93-1.76-4.14-2-9.43-1.71-14.22-2.33-11.19-1.45-22.37-3-33.59-4.19-4.52-.48-9.12-.16-13.68-.28a23.57,23.57,0,0,1-3.42-.6c.78-4.28,2.92-6.35,7-5.85,3.16.39,6.28,1.06,9.42,1.64.46.08,1.13.59,1.31.43,4.22-3.6,8.09-.51,12.2.34a12.14,12.14,0,0,0,9.86-1.77c4.35-2.82,10.29-3.32,15.62-4.42,7.34-1.52,14.41-2.48,20.32-8.5,4.45-4.52,11.69-6.18,16.64-10.35,7.75-6.53,17-9.16,26.13-12.21a4.74,4.74,0,0,1,2.38-.4,30.38,30.38,0,0,1,4,1.5c-1,1.29-1.65,3.21-2.93,3.77-4,1.71-8.36,2.44-12.16,4.4-7.44,3.82-15.15,7.48-21.69,12.56A81.2,81.2,0,0,1,428,299.21a76.09,76.09,0,0,0-8.21,3.82C424.48,309.3,445.76,310.2,458.89,304.46Z"/><path d="M310.67,348.17c1.08,4.69.34,7.6-4,9a8.18,8.18,0,0,0-3.5,2.5c-5.85,6.9-11.53,13.94-17.38,20.84-7.34,8.66-11.85,18.74-15.23,29.45a33.17,33.17,0,0,1-2.79,6.45c-.54.95-2,2.17-2.8,2a4.62,4.62,0,0,1-2.86-2.61,6.45,6.45,0,0,1,.17-4.31c2.62-6.24,5.25-12.48,8.29-18.52s5.94-12.1,9.91-17.41c4.56-6.1,10.08-11.51,15.45-17a118.06,118.06,0,0,1,10.65-9.18C307.46,348.69,308.93,348.67,310.67,348.17Z"/><path d="M417.75,361.31c-4.5-2.49-8.86-5-13.32-7.34-7.32-3.8-14.45-8.17-22.13-11a48.21,48.21,0,0,1-20.81-14.55c-1.92-2.28-5.16-3.39-7.46-5.41-1.26-1.11-1.83-3-2.72-4.57,1.56-.09,3.12-.32,4.67-.26,5.89.23,9.89,2.56,12.8,8.31,1.65,3.24,6.27,5.28,9.92,7.12,8.37,4.21,17.06,7.8,25.45,12a102.22,102.22,0,0,1,12.31,7.61C419.63,355.38,419.6,356,417.75,361.31Z"/><path d="M152.12,442.65v41.62h-3v-19.8H121.26v19.8h-3V442.65h3v19.14h27.83V442.65Z"/><path d="M192.37,472.55H168.23l-5.29,11.72h-3.27l19.14-41.62h3L201,484.27h-3.27ZM191.24,470,180.3,446l-10.88,24Z"/><path d="M239.63,442.65l-18.55,41.62h-3L199.5,442.65h3.33l16.82,37.69,16.83-37.69Z"/><path d="M248.58,483a16.65,16.65,0,0,1-6.45-4.08l1.36-2.25a16.18,16.18,0,0,0,5.92,3.77,21.26,21.26,0,0,0,7.82,1.46c4,0,6.95-.76,9-2.26a7,7,0,0,0,3-5.89,6.16,6.16,0,0,0-1.61-4.46,10.57,10.57,0,0,0-4-2.55,55.15,55.15,0,0,0-6.42-1.85,60.68,60.68,0,0,1-7.34-2.2,11.63,11.63,0,0,1-4.7-3.3,8.77,8.77,0,0,1-1.93-6,10.18,10.18,0,0,1,1.6-5.56,10.93,10.93,0,0,1,4.91-4,20.05,20.05,0,0,1,8.23-1.49,23.35,23.35,0,0,1,6.78,1,20.17,20.17,0,0,1,5.77,2.74l-1.13,2.43a19.47,19.47,0,0,0-5.5-2.61A20.59,20.59,0,0,0,258,445c-3.84,0-6.76.77-8.74,2.32a7.25,7.25,0,0,0-3,6,6.16,6.16,0,0,0,1.6,4.46,10.68,10.68,0,0,0,4,2.56,62.36,62.36,0,0,0,6.48,1.9,58.89,58.89,0,0,1,7.31,2.2,12,12,0,0,1,4.67,3.24,8.53,8.53,0,0,1,1.93,5.85,9.86,9.86,0,0,1-1.64,5.53,11.08,11.08,0,0,1-5,4,20.71,20.71,0,0,1-8.32,1.48A24.23,24.23,0,0,1,248.58,483Z"/><path d="M316.44,442.65v41.62H314l-28.36-36.15v36.15h-3V442.65h2.56l28.3,36.15V442.65Z"/><path d="M356.69,472.55H332.55l-5.29,11.72H324l19.15-41.62h3l19.14,41.62H362ZM355.56,470l-10.94-24-10.88,24Z"/><path d="M378.84,481.83a20.17,20.17,0,0,1-7.73-7.55,22.1,22.1,0,0,1,0-21.64,20.17,20.17,0,0,1,7.73-7.55,22.16,22.16,0,0,1,11-2.74,23.14,23.14,0,0,1,8.33,1.46,17.27,17.27,0,0,1,6.48,4.31l-1.9,2A17.44,17.44,0,0,0,390,445.15a19.28,19.28,0,0,0-9.51,2.37,17.53,17.53,0,0,0-6.72,6.57,19.26,19.26,0,0,0,0,18.73,17.46,17.46,0,0,0,6.72,6.57,19.18,19.18,0,0,0,9.51,2.38,17.44,17.44,0,0,0,12.79-5l1.9,2a17.53,17.53,0,0,1-6.51,4.34,22.79,22.79,0,0,1-8.3,1.48A22.26,22.26,0,0,1,378.84,481.83Z"/><path d="M427.2,463.75l-9.34,9.58v10.94h-3V442.65h3V469.4l26-26.75h3.68l-18.31,18.9,19.56,22.72h-3.69Z"/><path d="M456.63,442.65h3v41.62h-3Z"/><path d="M450.65,420.87s1.74-5.24,5.24-5.24,7,5.24,7,5.24l3.49-5.24v10.49l-3.49-2.62s-3.5,2.62-6.12,2.62S450.65,420.87,450.65,420.87Z"/></svg>