<svg id="Layer_1" data-name="Layer 1" xmlns="http://www.w3.org/2000/svg" width="10cm" height="10cm" viewBox="0 0 283.46 283.46"><defs><style>.cls-1{fill:#ae8e4a;}.cls-2{fill:#916c30;}.cls-3{fill:#6c611a;}.cls-4{fill:#998f24;}</style></defs><title>tang -  sukkertang</title><path class="cls-1" d="M118.8,171.16a9.09,9.09,0,0,1,4.07-4.6,26.52,26.52,0,0,1,5.5-2.51,4.94,4.94,0,0,0,1.85-.81c1.63-1.31,3.16-2.82,2.75-5.07a6.65,6.65,0,0,0-4.24-5.5A37.74,37.74,0,0,0,124,151.4a6.48,6.48,0,0,1-4.83-3.89,21,21,0,0,1-1.75-4.28,8.75,8.75,0,0,1,1.86-7.57,6.78,6.78,0,0,1,4.49-2.49,26.74,26.74,0,0,0,4.66-1.35,8,8,0,0,0,1.62-.83c2.31-1.49,2.89-3.35,1.91-5.92a3.45,3.45,0,0,0-1.68-1.91,45.63,45.63,0,0,0-5.82-2.34,6.55,6.55,0,0,1-4.52-5.47c-.48-3.1-.59-6.09.88-9.09a7.25,7.25,0,0,1,3.88-3.61c.85-.36,1.73-.7,2.57-1.11a16.78,16.78,0,0,1,6.2-1.77,10.21,10.21,0,0,0,5.59-2.62,5.94,5.94,0,0,0,1.39-6.67,24.11,24.11,0,0,0-3.07-5,13.79,13.79,0,0,1-3.16-8,7.35,7.35,0,0,1,3.57-7,7.21,7.21,0,0,1,8.54-.3c1.75,1.13,3.36.78,4.86-.83s1.5-3,.26-4.72a12.41,12.41,0,0,0-1.36-1.77,6.53,6.53,0,0,1-1.65-4c-.49-3,1.29-4.63,3.28-6.21a3.22,3.22,0,0,1,2.5-.63,28.47,28.47,0,0,0,4.22.2c3,.08,5.87-.6,7.82-3.05a7.36,7.36,0,0,0,1.84-5.79c-.23-1.53-.19-3.1-.38-4.63a2.12,2.12,0,0,1,1.61-2.45,12.68,12.68,0,0,1,6-.66,17,17,0,0,0,4.62-.25,2.34,2.34,0,0,0,2.13-2.32,19.23,19.23,0,0,0,.18-2.62,5.25,5.25,0,0,1,4.66-5.44,12.41,12.41,0,0,1,1.61-.19c.7,0,1.5.34,1.94-.59a2.68,2.68,0,0,0,.19-2.7,5,5,0,0,1-.59-2.91c0-1.43.59-2.07,2-2.34a4.34,4.34,0,0,1,3.5.34,1.33,1.33,0,0,0,2.06-.52c.33-.52.67-1,1-1.54a3.6,3.6,0,0,1,4.44-1.79c2.17.63,2.18.61,3.32-1.39a14.18,14.18,0,0,1,1.19-1.88,3,3,0,0,1,3-1.19c1.92.31,1.94.28,2.53-1.5.41-1.25,1-2.14,2.54-2,.92.06,1.67-.83,2.8-.54a2.05,2.05,0,0,1,1.74,1.4c.25.81-.44,1.21-.93,1.65-.29.27-.69.42-1,.68A2.7,2.7,0,0,0,217.21,11c.61,2.49-.67,3.9-3.31,4a1.8,1.8,0,0,0-1.74,2.17c.09.65.67,1.27.26,1.94A6.43,6.43,0,0,1,209.64,21c-1.55.67-1.87.9-1.53,2.59.5,2.44-.7,3.61-2.64,4.59-2.36,1.2-2.53,1.67-1.86,4.15a12.5,12.5,0,0,1,.21,4.83,4.78,4.78,0,0,1-2,3.35,15.87,15.87,0,0,1-4,2.28c-1.29.43-2.14,1.6-3.16,2.46a1.5,1.5,0,0,0-.37,1.69,11.62,11.62,0,0,0,.9,2.46,6.61,6.61,0,0,1,.56,4.9,3.73,3.73,0,0,1-3.85,2.57,18.88,18.88,0,0,1-3.15-.71,6.88,6.88,0,0,0-2.2-.27A1.56,1.56,0,0,0,185,58.25a6.6,6.6,0,0,0,.91,1.34c2.24,3,1.7,4.07-1.08,6.41a8.58,8.58,0,0,1-4,1.8,29.7,29.7,0,0,0-5.14,1.82,1.73,1.73,0,0,0-1.21,1.86A6.09,6.09,0,0,0,176.29,76a5.9,5.9,0,0,1,.39.46c2,2.06,2,3.81.09,6s-2.06,4.07-.33,6.43A10.68,10.68,0,0,0,178.31,91a3.74,3.74,0,0,1,1.35,3.23,9.71,9.71,0,0,1-1.5,5,6.15,6.15,0,0,1-4.19,2.55,8.16,8.16,0,0,0-4.28,2.48,7.07,7.07,0,0,0-1.79,4.57c-.35,4.68,1.8,8.33,4.67,11.68a67.41,67.41,0,0,0,7.29,7.83c3.24,2.76,3.31,6.48,2.73,10.36-.48,3.2-1.84,4.9-5.68,5.18a6.22,6.22,0,0,1-2.87-.63c-1.46-.57-1.63-.48-2.21,1s-.86,3.2-2.15,4.47a2.72,2.72,0,0,1-1.83.95,26.48,26.48,0,0,0-4.31.76,4.73,4.73,0,0,0-3.57,4.13,53.76,53.76,0,0,0-1.31,9.75c0,3.38.47,6.77,3,9.41,2.06,2.15,4.15,2.51,6.92,1.3a9.19,9.19,0,0,1,1.53-.52c1.85-.41,3.43,0,4,1.08a4,4,0,0,1-.89,5.14,13.33,13.33,0,0,1-5,2.68,29.66,29.66,0,0,0-3.56,1.42,1.58,1.58,0,0,0-1,1.54c-.23,2.88,1.93,8.57,5.72,10.27a4,4,0,0,0,4.93-.86,8,8,0,0,1,9.15-1.64,3.78,3.78,0,0,1,1.41,1.12c3.19,4.47,3.3,7.81.45,12.53a7.32,7.32,0,0,1-3,2.39,24.48,24.48,0,0,0-5.75,4.42,11.08,11.08,0,0,0-3,9.27c.17,1.89.31,3.77.48,5.65a38.92,38.92,0,0,0,1.1,5.53c.65,2.66,2.41,3.7,4.75,3.93a17.92,17.92,0,0,1,6.16,1.82,6.89,6.89,0,0,1,3.9,4.87c.18.82.29,1.7-.59,2.15a2.1,2.1,0,0,1-2.24-.54.75.75,0,0,1-.27-.29c-1-2.28-3.06-2.47-5.08-2.59a17.9,17.9,0,0,1-10.1-3.63,15,15,0,0,1-3.76-4.12,55.23,55.23,0,0,0-4.58-6.4,60.75,60.75,0,0,1-7.65-13c-.54-1.15-1.27-2.22-1.92-3.32a9.5,9.5,0,0,1-1.1-1.92c-.9-3-3.38-4.18-6-5.09a35,35,0,0,0-3.53-.87,6.21,6.21,0,0,1-3-1.61,1.62,1.62,0,0,1-.14-2.5,3.72,3.72,0,0,1,2.58-1.42,6.08,6.08,0,0,0,1.39-.21c.83-.33,1.19-.86.83-1.74a6.41,6.41,0,0,0-1.92-2.8,16,16,0,0,0-5.52-2.85c-2.07-.56-4.07-1.53-6.23-1.71a11,11,0,0,1-7.07-3.58,30.76,30.76,0,0,1-5.16-6.91C117.1,177.37,117.39,174.35,118.8,171.16ZM205.22,18.43c-1.18.31-2.27.77-2.65,2.11a3,3,0,0,1-2,1.86,4.3,4.3,0,0,0-2.71,3,5.46,5.46,0,0,1-.89,1.81c-.7.9-1.47,1.91-2.81,1.63-1.06-.22-1.29.35-1.42,1.15a2.88,2.88,0,0,1-2,2.57,4.81,4.81,0,0,0-3.65,3.66,8,8,0,0,1-4.13,5,5.59,5.59,0,0,0-2.47,2.57c-.91,1.8-2.06,3.47-2.88,5.33-1,2.16-1.86,2.5-4,1.62-1.07-.45-1.51,0-1.88.84a52.73,52.73,0,0,0-2.22,5.2,18.78,18.78,0,0,1-2.25,4.72c-.67,1-1.2,1.79-2.5,1a.91.91,0,0,0-1.13.14c-.69.62-1.56,1.06-2,2-1,2.24-1.82,4.46-1.53,7a13.76,13.76,0,0,1-3.34,10.49c-.84,1-1.1,1.11-2.19.51a4.06,4.06,0,0,1-1-.7c-.71-.73-1.15-.53-1.44.34a12.94,12.94,0,0,0-.57,5.92c.34,2.56.55,5.12-.52,7.57-.54,1.24-1.14,2.45-1.74,3.66-.91,1.79-1.44,2-3.13,1-.78-.47-1.53-.77-2.23-.14a6.48,6.48,0,0,0-2.35,3.41,8.25,8.25,0,0,0,1.93,7.53c1.66,1.74,1.5,4,2.21,6a.42.42,0,0,1-.07.38c-1.36,1.13-1.89,2.92-3.26,4-.28.23-.76.41-1-.16s-.89-.56-1.08-1.14a.55.55,0,0,0-.84-.26c-.6.68-1.65,1.06-1.73,2.11a16.18,16.18,0,0,0,0,5.15c.47,1.89,1.14,3.71,1.71,5.55a13.54,13.54,0,0,1,.38,7.51c-.48,1.91-.6,2.08-2.61,1.63a1.73,1.73,0,0,0-2.13,1,6.93,6.93,0,0,0-.25,5.15,18.8,18.8,0,0,0,4.6,8.66,10.44,10.44,0,0,1,2.54,5,3.68,3.68,0,0,1-.9,3.56,4.27,4.27,0,0,1-3,1.38c-2.12.2-2.83,1.18-2.57,3.28a11.15,11.15,0,0,0,.55,2.77,15.56,15.56,0,0,0,7,7.82,15.51,15.51,0,0,1,5.07,4.27,3.59,3.59,0,0,1-.2,4.61,1.61,1.61,0,0,0-.39,2,16.33,16.33,0,0,0,3.83,5.87,48.63,48.63,0,0,1,5.83,6.68,7.45,7.45,0,0,1,1.24,3.77c.11.69-.27.92-.91,1s-1.28-.57-2,0a4.11,4.11,0,0,0,1,3.37,35.34,35.34,0,0,1,3.63,4.32c2.17,3,4.79,5.66,6.08,9.22a27.47,27.47,0,0,0,1.21,2.78,14.89,14.89,0,0,0,2,3.4,1.34,1.34,0,0,0,.14-1.38,14.27,14.27,0,0,1,.58-10.28,5.5,5.5,0,0,0,.32-2.78c-.16-1.8-1.44-2.54-3.1-1.81-.31.13-.58.35-.9.45-.77.25-1.26.09-1.47-.82a5.2,5.2,0,0,1,.75-4.61,6.15,6.15,0,0,0,1.15-5c-.38-2.16-1-2.58-3.18-2a2.35,2.35,0,0,1-2.93-1,7.49,7.49,0,0,1-.91-2.43c-.35-2.88-1-5.71-1.07-8.62a23.24,23.24,0,0,0-.45-3.2,3,3,0,0,0-2.13-2.48c-2.18-.77-2.59-1.36-2.37-3.51a36.24,36.24,0,0,0-1.6-14,3,3,0,0,0-2.61-2.2c-.46-.07-.94,0-1.41,0-1.34-.1-1.69-.49-2-1.84a4.55,4.55,0,0,1,.26-2.38c.53-1.59,1.16-3.14,1.73-4.71A15.31,15.31,0,0,1,150,154a53,53,0,0,0,2.89-4.88c.82-1.55.66-2-.72-3.07-.54-.4-1.18-.66-1.69-1.09-.31-.27-.78-.59-.48-1.19,1.17-2.32,2.12-4.74,4.61-6.16a7.9,7.9,0,0,0,3.35-3.7c.19-.42.46-.8.26-1.33-1.05-2.7-1.93-5.5-4.5-7.25a2.38,2.38,0,0,1-1.17-1.34c-.88-3.48-.25-6.85,3.26-8.94a6.57,6.57,0,0,0,2.56-2.2,17.52,17.52,0,0,0,2-7.11,2.48,2.48,0,0,0-1.06-2.35c-.67.25-.58,1.59-1.57,1-.79-.51-.76-1.17-.37-2.08a13.73,13.73,0,0,1,3.19-4.37,24.71,24.71,0,0,0,4-4.52c1.41-2.29,1.27-3.28-.6-5.09a5.74,5.74,0,0,0-.45-.41,1.44,1.44,0,0,1-.38-2.12,5.07,5.07,0,0,1,1.15-1.64c.58-.45,1.07-1,1.67-1.46,1.16-.82.62-2.11.95-3.16.22-.71-.48-1-.93-1.41a1.62,1.62,0,0,1-.38-2.18c1-2,1.74-4.11,3.43-5.69a9.51,9.51,0,0,0,1.51-1.88c.53-.82.9-1.69-.1-2.5-.66-.54-.56-1.1,0-1.74a15.66,15.66,0,0,1,3.61-3.47,13,13,0,0,0,5.41-6.85,1.16,1.16,0,0,0-.18-1.44c-1.11-1.11-1-1.1,0-2.3A14.34,14.34,0,0,1,185,46c2-.8,3.65-3.32,3.11-4.94-.62-1.82.51-2.77,1.48-3.79s1.67-2.53,3.36-2.71c.13,0,.27,0,.4,0a2.74,2.74,0,0,0,2.74-2.21c.42-1.61.81-3.28,2.38-4.31.49-.32.42-.94.5-1.48a3.18,3.18,0,0,1,1.84-2.72A5.49,5.49,0,0,0,203.54,21,12.84,12.84,0,0,1,205.22,18.43Z"/><path class="cls-2" d="M205.22,18.43A12.84,12.84,0,0,0,203.54,21a5.49,5.49,0,0,1-2.71,2.89A3.18,3.18,0,0,0,199,26.58c-.08.54,0,1.16-.5,1.48-1.57,1-2,2.7-2.38,4.31a2.74,2.74,0,0,1-2.74,2.21c-.13,0-.27,0-.4,0-1.69.18-2.38,1.66-3.36,2.71s-2.1,2-1.48,3.79c.54,1.62-1.13,4.14-3.11,4.94a14.34,14.34,0,0,0-5.73,4c-1,1.2-1.11,1.19,0,2.3a1.16,1.16,0,0,1,.18,1.44,13,13,0,0,1-5.41,6.85,15.66,15.66,0,0,0-3.61,3.47c-.53.64-.63,1.2,0,1.74,1,.81.63,1.68.1,2.5a9.51,9.51,0,0,1-1.51,1.88c-1.69,1.58-2.4,3.73-3.43,5.69a1.62,1.62,0,0,0,.38,2.18c.45.4,1.15.7.93,1.41-.33,1.05.21,2.34-.95,3.16-.6.42-1.09,1-1.67,1.46a5.07,5.07,0,0,0-1.15,1.64,1.44,1.44,0,0,0,.38,2.12,5.74,5.74,0,0,1,.45.41c1.87,1.81,2,2.8.6,5.09a24.71,24.71,0,0,1-4,4.52,13.73,13.73,0,0,0-3.19,4.37c-.39.91-.42,1.57.37,2.08,1,.64.9-.7,1.57-1a2.48,2.48,0,0,1,1.06,2.35,17.52,17.52,0,0,1-2,7.11,6.57,6.57,0,0,1-2.56,2.2c-3.51,2.09-4.14,5.46-3.26,8.94a2.38,2.38,0,0,0,1.17,1.34c2.57,1.75,3.45,4.55,4.5,7.25.2.53-.07.91-.26,1.33a7.9,7.9,0,0,1-3.35,3.7c-2.49,1.42-3.44,3.84-4.61,6.16-.3.6.17.92.48,1.19.51.43,1.15.69,1.69,1.09,1.38,1,1.54,1.52.72,3.07A53,53,0,0,1,150,154a15.31,15.31,0,0,0-1.55,3.49c-.57,1.57-1.2,3.12-1.73,4.71a4.55,4.55,0,0,0-.26,2.38c.27,1.35.62,1.74,2,1.84.47,0,1,0,1.41,0a3,3,0,0,1,2.61,2.2,36.24,36.24,0,0,1,1.6,14c-.22,2.15.19,2.74,2.37,3.51a3,3,0,0,1,2.13,2.48,23.24,23.24,0,0,1,.45,3.2c.1,2.91.72,5.74,1.07,8.62a7.49,7.49,0,0,0,.91,2.43,2.35,2.35,0,0,0,2.93,1c2.15-.62,2.8-.2,3.18,2a6.15,6.15,0,0,1-1.15,5,5.2,5.2,0,0,0-.75,4.61c.21.91.7,1.07,1.47.82.32-.1.59-.32.9-.45,1.66-.73,2.94,0,3.1,1.81a5.5,5.5,0,0,1-.32,2.78,14.27,14.27,0,0,0-.58,10.28,1.34,1.34,0,0,1-.14,1.38,14.89,14.89,0,0,1-2-3.4,27.47,27.47,0,0,1-1.21-2.78c-1.29-3.56-3.91-6.24-6.08-9.22a35.34,35.34,0,0,0-3.63-4.32,4.11,4.11,0,0,1-1-3.37c.69-.54,1.3.16,2,0s1-.35.91-1a7.45,7.45,0,0,0-1.24-3.77,48.63,48.63,0,0,0-5.83-6.68,16.33,16.33,0,0,1-3.83-5.87,1.61,1.61,0,0,1,.39-2,3.59,3.59,0,0,0,.2-4.61,15.51,15.51,0,0,0-5.07-4.27,15.56,15.56,0,0,1-7-7.82,11.15,11.15,0,0,1-.55-2.77c-.26-2.1.45-3.08,2.57-3.28a4.27,4.27,0,0,0,3-1.38,3.68,3.68,0,0,0,.9-3.56,10.44,10.44,0,0,0-2.54-5,18.8,18.8,0,0,1-4.6-8.66,6.93,6.93,0,0,1,.25-5.15,1.73,1.73,0,0,1,2.13-1c2,.45,2.13.28,2.61-1.63a13.54,13.54,0,0,0-.38-7.51c-.57-1.84-1.24-3.66-1.71-5.55a16.18,16.18,0,0,1,0-5.15c.08-1,1.13-1.43,1.73-2.11a.55.55,0,0,1,.84.26c.19.58.87.62,1.08,1.14s.7.39,1,.16c1.37-1.11,1.9-2.9,3.26-4a.42.42,0,0,0,.07-.38c-.71-2-.55-4.25-2.21-6a8.25,8.25,0,0,1-1.93-7.53A6.48,6.48,0,0,1,144,100.3c.7-.63,1.45-.33,2.23.14,1.69,1,2.22.82,3.13-1,.6-1.21,1.2-2.42,1.74-3.66,1.07-2.45.86-5,.52-7.57a12.94,12.94,0,0,1,.57-5.92c.29-.87.73-1.07,1.44-.34a4.06,4.06,0,0,0,1,.7c1.09.6,1.35.52,2.19-.51a13.76,13.76,0,0,0,3.34-10.49c-.29-2.56.57-4.78,1.53-7,.4-.93,1.27-1.37,2-2a.91.91,0,0,1,1.13-.14c1.3.8,1.83,0,2.5-1a18.78,18.78,0,0,0,2.25-4.72,52.73,52.73,0,0,1,2.22-5.2c.37-.81.81-1.29,1.88-.84,2.11.88,3,.54,4-1.62.82-1.86,2-3.53,2.88-5.33a5.59,5.59,0,0,1,2.47-2.57,8,8,0,0,0,4.13-5,4.81,4.81,0,0,1,3.65-3.66,2.88,2.88,0,0,0,2-2.57c.13-.8.36-1.37,1.42-1.15,1.34.28,2.11-.73,2.81-1.63a5.46,5.46,0,0,0,.89-1.81,4.3,4.3,0,0,1,2.71-3,3,3,0,0,0,2-1.86C203,19.2,204,18.74,205.22,18.43Z"/><path class="cls-3" d="M138.2,269.6a2.64,2.64,0,0,0-.61-2.94,9.74,9.74,0,0,0-3.93-3c-1.77-.71-3.71-1.18-5.18-2.6-2.5-2.44-3.39-5.16-2.33-8.61a23.21,23.21,0,0,1,3-6.13,10.64,10.64,0,0,0,1-9.89,40.5,40.5,0,0,0-2.55-6.15c-2.17-3.94-4.66-7.57-8.58-10a3,3,0,0,0-1.06-.57c-2.28-.3-4.38-1.38-6.7-1.52a18.92,18.92,0,0,1-2.79-.48c-3.62-.76-5.4-3.48-6.49-6.61a5.28,5.28,0,0,1,.82-4.25,40.89,40.89,0,0,0,3-6.59c2-5,1-7.53-3.8-11.26a15.61,15.61,0,0,0-4.28-2.28,8.5,8.5,0,0,1-5-4.95c-.35-.8-.71-1.6-1-2.41-.9-2.27.26-4.16,2.73-4.45,1.6-.19,1.66-.3.9-1.63-.93-1.64-1.77-3.34-2.77-4.93-2.13-3.36-1.29-6.6.36-9.75a3.31,3.31,0,0,1,2.51-1.55c1-.15,2.06.05,2.53-1.22.57-1.54,1.13-3,.31-4.67a12.64,12.64,0,0,0-1.77-2.45,16.19,16.19,0,0,1-3.37-5.91,3.08,3.08,0,0,1,.53-3.34,21.55,21.55,0,0,0,2.09-3.18,4.53,4.53,0,0,1,3.44-2.22c1.61-.21,2.19-1.1,1.5-2.48a2.28,2.28,0,0,1,.82-3.29,5.57,5.57,0,0,0,1-1c1.52-1.86.87-4-1.44-4.65a2.91,2.91,0,0,0-2.43.77c-.87.58-1.6,1.61-2.83.83-1.41-.88-2.64-2-2.87-3.69-.18-1.31.24-2.77-.78-3.86s-2.31-1-3.56-1.22a2.63,2.63,0,0,1-2.23-2.21,12.91,12.91,0,0,1-.39-6.5,5.51,5.51,0,0,0-.46-3,54.52,54.52,0,0,0-2.36-5.58,5.22,5.22,0,0,0-4.8-3.11c-2.39-.06-2.74-.37-3.51-2.55-.23-.63-.46-1.27-.64-1.92a1.28,1.28,0,0,0-1.27-1.09c-2,0-2.71-1.4-3-3a5.64,5.64,0,0,0-2.41-3.52c-1-.78-1.81-1.62-1.61-3,.14-1-.57-1.49-1.22-2-1.54-1.11-1.49-2.75-1.57-4.36,0-.69.43-1,1-1.09s.87.31,1,.79a2.48,2.48,0,0,0,3,2c2.59-.38,3.43,1.38,4.52,3,.22.33.25.79.46,1.12a2.08,2.08,0,0,0,2.14,1.19c1.67-.2,3.34-.25,5-.55,2.38-.44,2.76-.08,3.56,1.65.17.37.38.72.56,1.08a2,2,0,0,0,1.85,1.28,23.4,23.4,0,0,1,4,.77c2.08.55,2.76,1.45,2.81,3.59a11.6,11.6,0,0,1-.37,3.21,5.51,5.51,0,0,0-.26,1.59c.07,1.66,1.21,2.51,2.66,1.81,1.64-.79,2.9-.39,4.32.53a17.47,17.47,0,0,1,3.79,3.89c.55.69,1,1.44,1.54,2.14,1.07,1.39,1.33,1.45,3.08,1a9.56,9.56,0,0,0,2.73-1.31,30.93,30.93,0,0,1,4.26-1.87,4.45,4.45,0,0,1,4.08.53,26.57,26.57,0,0,1,4.65,3.18c1.77,1.54,2,3.45,1.53,5.52a10.37,10.37,0,0,1-.8,2.29,3.19,3.19,0,0,0,0,2.55c.57,1.69,1.13,2.39,3.12,1.79,1.58-.48,2.87.35,4,1.39a10.21,10.21,0,0,1,2.92,6.7,11.12,11.12,0,0,1-1.58,7.78c-2.52,3.52-4.81,7.29-8.68,9.69a12.76,12.76,0,0,0-4.68,4.9,7,7,0,0,0-.18,7c1.3,2.39,3,4.39,6.05,4.82s4.36,4,4.3,6.7a19.82,19.82,0,0,0,.85,5.15,4.08,4.08,0,0,0,2.6,2.88,25.32,25.32,0,0,1,3.78,1.92c2.45,1.55,4.13,5.26,3.2,8-.71,2.09-.6,4.2-.85,6.3-.24,1.92,2.05,4,4.49,4.29a8.25,8.25,0,0,1,3.16,1.08,3.08,3.08,0,0,1,1.65,2.94,14.47,14.47,0,0,1-1.85,7.93,35.76,35.76,0,0,1-6.24,8.36,14.37,14.37,0,0,0-3.12,4.69c-.82,1.8-.31,3.44,1.21,5.13a10.63,10.63,0,0,0,4.74,2.6c.7.23,1.41.32,1.68,1.19.17.56.79.68,1.3.86A16.11,16.11,0,0,0,156,228a29.66,29.66,0,0,1,6.57-1.15,4.51,4.51,0,0,1,4.62,2.24,2.73,2.73,0,0,1,.47,2.24,19.49,19.49,0,0,1-1.41,4.63,12.42,12.42,0,0,0-1.21,3c-1,3.8,1.24,6.69,5.21,6.75a32.22,32.22,0,0,0,8-1.12,7.53,7.53,0,0,1,5.12.47,7.15,7.15,0,0,1,3.17,9.66,37,37,0,0,1-3.93,6.31c-.55.7-1.11,1.24-1,2.28.17,1.19.46,2.47,1.41,3,2.7,1.61,5.48,3.17,8.75,3.41a8.26,8.26,0,0,0,6.49-2.78c1.35-1.32,2.79-2.54,4.25-3.74a8.5,8.5,0,0,1,3.68-1.58,2,2,0,0,1,1.19,0c.9.38,2.36.42,2.32,1.6s-1.24,1.38-2.31,1.53a5.58,5.58,0,0,0-3.91,2.64,20.76,20.76,0,0,1-4.41,4.37,11.81,11.81,0,0,1-9.89,2.24c-2.82-.48-5.41-1.67-8.18-2.27a14.29,14.29,0,0,0-5-.34c-5.35.74-10.64,1.73-15.54,4.14a6.47,6.47,0,0,1-1.32.52,48.19,48.19,0,0,0-7.79,2.71c-3.15,1.32-8.92-.28-11.06-3.25a10.85,10.85,0,0,1-2.1-5.91Zm40.08-2c-.18-.92-.84-1.21-1.36-1.57-2.68-1.79-5.35-3.6-8-5.48a27.87,27.87,0,0,1-6.17-5.74c-1.95-2.59-4.36-4.74-6.43-7.2s-4.41-4.37-6.44-6.7c-2.25-2.59-5.07-4.53-7.48-6.94-.84-.84-2-1.33-2.83-2.26-1.63-1.89-3.33-3.73-4.81-5.74a28.08,28.08,0,0,1-4.78-8.63,72.92,72.92,0,0,1-2.19-9.66,28.26,28.26,0,0,0-1.3-5.06c-1.56-4.51-2.89-9.09-4.65-13.54-1.17-2.94-1.92-6-3-9-2-5.2-3.67-10.5-5.29-15.82a42.79,42.79,0,0,1-1.87-11.1,30.17,30.17,0,0,1,0-6.65c.37-2,1-3.92,1.32-5.9a76.8,76.8,0,0,0,1.07-8c.32-4.88-1.84-9.13-3.83-13.39-.16-.34-.5-.42-.72-.63a25.78,25.78,0,0,1-4.5-5.13,32.17,32.17,0,0,0-6.64-7.92c-3-2.62-6.43-4.9-9-8-.52-.63-1.1-1.23-1.94-2.15a10.63,10.63,0,0,0,1.65,4.4c2.55,3.2,4.77,6.7,7.92,9.39A24.94,24.94,0,0,1,98.94,111a79.81,79.81,0,0,1,7.11,8.48c2,2.79,3.78,5.65,3.25,9.35-.12.87-.41,1.69-.53,2.56-.54,3.8-1.47,7.52-2.32,11.25-.66,3-1.42,5.89-1.87,8.89a50.93,50.93,0,0,0-.17,9.24,82.28,82.28,0,0,0,2.25,15.73,105.86,105.86,0,0,0,4.52,13.83,86.47,86.47,0,0,0,3.3,8.25c1.11,2.22,2.4,4.36,3.5,6.58a94.07,94.07,0,0,0,4.76,8.43c2,3.13,4,6.17,5.87,9.4s3.29,6.31,4.8,9.53a35.27,35.27,0,0,0,4.86,8.34,38.36,38.36,0,0,1,4.35,6.06,49.68,49.68,0,0,0,8.55,10.68c2.72,2.68,6.17,4.49,9.42,6.51a9.62,9.62,0,0,0,2.74,1.26c2.74.67,5.44,1.49,8.22,2A32.87,32.87,0,0,0,178.28,267.61ZM86.46,94c0,.06-.07.14,0,.18A4.47,4.47,0,0,0,87,95c.1.1.3-.06.23-.2a6.44,6.44,0,0,0-.57-.8S86.52,94,86.46,94Z"/><path class="cls-4" d="M178.28,267.61a32.87,32.87,0,0,1-6.73-.24c-2.78-.54-5.48-1.36-8.22-2a9.62,9.62,0,0,1-2.74-1.26c-3.25-2-6.7-3.83-9.42-6.51a49.68,49.68,0,0,1-8.55-10.68,38.36,38.36,0,0,0-4.35-6.06,35.27,35.27,0,0,1-4.86-8.34c-1.51-3.22-3-6.41-4.8-9.53s-3.91-6.27-5.87-9.4a94.07,94.07,0,0,1-4.76-8.43c-1.1-2.22-2.39-4.36-3.5-6.58a86.47,86.47,0,0,1-3.3-8.25,105.86,105.86,0,0,1-4.52-13.83,82.28,82.28,0,0,1-2.25-15.73,50.93,50.93,0,0,1,.17-9.24c.45-3,1.21-5.93,1.87-8.89.85-3.73,1.78-7.45,2.32-11.25.12-.87.41-1.69.53-2.56.53-3.7-1.27-6.56-3.25-9.35A79.81,79.81,0,0,0,98.94,111,24.94,24.94,0,0,0,97,109.18c-3.15-2.69-5.37-6.19-7.92-9.39a10.63,10.63,0,0,1-1.65-4.4c.84.92,1.42,1.52,1.94,2.15,2.59,3.15,6,5.43,9,8a32.17,32.17,0,0,1,6.64,7.92,25.78,25.78,0,0,0,4.5,5.13c.22.21.56.29.72.63,2,4.26,4.15,8.51,3.83,13.39a76.8,76.8,0,0,1-1.07,8c-.34,2-1,3.92-1.32,5.9a30.17,30.17,0,0,0,0,6.65,42.79,42.79,0,0,0,1.87,11.1c1.62,5.32,3.31,10.62,5.29,15.82,1.12,3,1.87,6.06,3,9,1.76,4.45,3.09,9,4.65,13.54a28.26,28.26,0,0,1,1.3,5.06,72.92,72.92,0,0,0,2.19,9.66,28.08,28.08,0,0,0,4.78,8.63c1.48,2,3.18,3.85,4.81,5.74.8.93,2,1.42,2.83,2.26,2.41,2.41,5.23,4.35,7.48,6.94,2,2.33,4.44,4.33,6.44,6.7s4.48,4.61,6.43,7.2a27.87,27.87,0,0,0,6.17,5.74c2.62,1.88,5.29,3.69,8,5.48C177.44,266.4,178.1,266.69,178.28,267.61Z"/></svg>