<svg id="Layer_1" data-name="Layer 1" xmlns="http://www.w3.org/2000/svg" width="10cm" height="10cm" viewBox="0 0 283.46 283.46"><defs><style>.cls-1{fill:#995f6a;}.cls-2{fill:#ae6973;}</style></defs><title>tang -  rød purpurhinde</title><path class="cls-1" d="M119.86,88.26c1.73-6.42,3.48-14.59,11.49-15.77h0c7.54-2.34,11.41,17.17,17,12.57,0,0,.06-.06.09-.1,1.09-1.91.51-4.3.91-6.4A7.48,7.48,0,0,1,158.28,72c1.86.4,8.81,5.28,11.52,9l0,0c2.13,2.26,5.53,2.17,8.4,2.95,1.51.24,2.17,2,3.67,2.28a.31.31,0,0,1,.12,0c6.31,4.1-7.49,17.86,3.26,19.62h0c16.92,1.22-5.64-14.07,33.59-2.66,5.91,1.47,5.11,9.94,9.89,12.62l0,0c7.61,3.08,10.9,7.56,14.73,14.34l0,0c12.54,16.65,0,22.34,5.66,27.27l.06,0c4.79,2.55,9.41,5.86,11.22,11.08,3.5,8.5-10.27,16.61-5.16,25.5,6.7,12.8-1.2,16.07,2.12,23.15l0,.06c3.87,5-.64,9.83-2.49,14.67-2,4.52-6.87,7.28-11.6,6h-.13c-4.42.55-7.57-2.79-11.52-4h0c-5.34-1-4.59-9.76-10.75-8.35-10.48,2.05-13.67,14.22-23.34,17.68l-.05,0c-6.81,3.9-18.73-1-20.22-8.51v-.09c.42-6.06,1.36-12,1.51-18a.38.38,0,0,0-.07-.21c-3.59-4.51-11.38-4.83-16.82-3.65a.32.32,0,0,0-.17.09c-2.81,2.89-2.37,9.3-3.33,13.37-1.11,4.85-7,10.58-12.21,7.78l0,0c-7.23-2.32-14-6-21.14-8.18-8.39-2.08-3.87-12.53-3.9-18.52a.5.5,0,0,1,0-.12c2-4.78-10.56-4.69-13.6-7.72l0,0c-2-1.68-5.22-.53-7-2.34-3.46-3.15-8.78-4.92-10.32-9.64-1.81-6.31,9.14-7.69,2.12-16.66l0,0c-3.26-6-11.73-2-15.17-7.71l0-.05c-1.73-4.57-11.36-11.33-8.81-15.25,1.17-2.22.6-3.83-1.75-4.75h-.06a57.28,57.28,0,0,0-18.61-1.37h0c-4.42.72-7.41-2.5-10.6-4.84l0,0c-1.56-1.3-2-3.15-2.42-5v0c-.64-5.12-8.25-7.92-3.88-13.37l0,0c2.76-4.26,7.52-4.62,11.66-6.69l.09-.06C50.52,104,36.37,96.4,30,93.37l0,0a10.72,10.72,0,0,1-7.16-13.46s0,0,0-.07c.17-5.5,7-12.36,12.44-8.36l0,0c6.21,3.32,14.86,3.47,15.56-5v-.06c-.56-6.25-6.55-10.65-9.24-16.15C37.92,42.38,47.58,38.55,54.23,39h.1C60.48,37.54,66,40.79,72.1,40.09h0c4.8-.88,10.28,1.66,10.68,6.95,0,0,0,0,0,.06,2.29,7.19,1.61,23.09,6.5,27l0,0c11.89,7.59,8.48-2.56,12.17-9.55l0,0c2.19-3.34,6.35-1.82,9.08-.1l.07.06c1.45,1.57,1.73,4.36,2.13,6.46v0c.19,6,1.4,13.75,6.51,17.38A.34.34,0,0,0,119.86,88.26Z"/><path class="cls-2" d="M119.86,88.26c1.73-6.42,3.48-14.59,11.49-15.77h0c7.54-2.34,11.41,17.17,17,12.57,0,0,.06-.06.09-.1,1.09-1.91.51-4.3.91-6.4A7.48,7.48,0,0,1,158.28,72c1.86.4,8.81,5.28,11.52,9l0,0c2.13,2.26,5.53,2.17,8.4,2.95,1.51.24,2.17,2,3.67,2.28a.31.31,0,0,1,.12,0c6.31,4.1-7.49,17.86,3.26,19.62h0c16.92,1.22-5.64-14.07,33.59-2.66,5.91,1.47,5.11,9.94,9.89,12.62l0,0c7.61,3.08,10.9,7.56,14.73,14.34l0,0c12.54,16.65,0,22.34,5.66,27.27l.06,0c4.79,2.55,9.41,5.86,11.22,11.08,3.5,8.5-10.27,16.61-5.16,25.5,6.7,12.8-1.2,16.07,2.12,23.15l0,.06c3.87,5-.64,9.83-2.49,14.67-2,4.52-6.87,7.28-11.6,6h-.13c-4.42.55-7.57-2.79-11.52-4h0c-5.34-1-4.59-9.76-10.75-8.35-10.48,2.05-13.67,14.22-23.34,17.68l-.05,0c-6.81,3.9-18.73-1-20.22-8.51v-.09c.42-6.06,1.36-12,1.51-18a.38.38,0,0,0-.07-.21c-3.59-4.51-11.38-4.83-16.82-3.65a.32.32,0,0,0-.17.09c-2.81,2.89-2.37,9.3-3.33,13.37-1.11,4.85-7,10.58-12.21,7.78l0,0c-7.23-2.32-14-6-21.14-8.18-8.39-2.08-3.87-12.53-3.9-18.52a.5.5,0,0,1,0-.12c2-4.78-10.56-4.69-13.6-7.72l0,0c-2-1.68-5.22-.53-7-2.34-3.46-3.15-8.78-4.92-10.32-9.64-1.81-6.31,9.14-7.69,2.12-16.66l0,0c-3.26-6-11.73-2-15.17-7.71l0-.05c-1.73-4.57-11.36-11.33-8.81-15.25,1.17-2.22.6-3.83-1.75-4.75h-.06a57.28,57.28,0,0,0-18.61-1.37h0c-4.42.72-7.41-2.5-10.6-4.84l0,0c-1.56-1.3-2-3.15-2.42-5v0c-.64-5.12-8.25-7.92-3.88-13.37l0,0c2.76-4.26,7.52-4.62,11.66-6.69l.09-.06C50.52,104,36.37,96.4,30,93.37l0,0a10.72,10.72,0,0,1-7.16-13.46s0,0,0-.07c.17-5.5,7-12.36,12.44-8.36l0,0c6.21,3.32,14.86,3.47,15.56-5v-.06c-.56-6.25-6.55-10.65-9.24-16.15C37.92,42.38,47.58,38.55,54.23,39h.1C60.48,37.54,66,40.79,72.1,40.09h0c4.8-.88,10.28,1.66,10.68,6.95,0,0,0,0,0,.06,2.29,7.19,1.61,23.09,6.5,27l0,0c11.89,7.59,8.48-2.56,12.17-9.55l0,0c2.19-3.34,6.35-1.82,9.08-.1l.07.06c1.45,1.57,1.73,4.36,2.13,6.46v0c.19,6,1.4,13.75,6.51,17.38A.34.34,0,0,0,119.86,88.26ZM152.19,215.8a.34.34,0,0,0,.55.35c1.29-1.1,1.7-3.45,3.42-3.85,2.44-.8,3.14-2.32,3.68-4.57,1.38-5.84,6.12-7.47,3,.5v0c-1.89,3.7,4.52.38,6.22,1a46.27,46.27,0,0,1,9.62,3.21.31.31,0,0,0,.43-.33c-1-6.59-5.71-15.39-5.93-22.62,0-.78-.65-2.7,0-2.94.05,0,1.78.17,1.85,1.4.17,2.77,4.06,13.19,4.75,16.08.89,3.85,1.82,8,2.93,11.73a.34.34,0,0,0,.2.21,4.91,4.91,0,0,1,1.7,1.35.34.34,0,0,0,.58-.27c-3.11-19.14-10.24-39-16.92-56.77a.83.83,0,0,0-1.28.14C163.61,165.28,156.81,202.07,152.19,215.8Zm-13-56.78c-3.68,3.21-11,19.6-12.58,23.57-2.61,5.8-5.6,12-10.32,16.32l-.08.05c-.53.27-.38.84.31,1.1,3.94,1.4,9.51,1.91,9.35,7a1.58,1.58,0,0,1-.39.47,3.48,3.48,0,0,0-1.17,3.1.32.32,0,0,0,.19.23c4.32,1.85,4-5.66,4.58-8.34v0c.28-3.06,7.95-31.3,10.66-43.17A.34.34,0,0,0,139.19,159Zm83,63.25c-4.56-8.65-10.21-16.29-13.1-25.62a.34.34,0,0,0-.66.06c-1,10,4.41,18.61,3.26,29h0c-.12,3.52,3.6-3.64,10.16-3A.33.33,0,0,0,222.21,222.27ZM53.37,68.49c-2,3.49-3.77,6.6-7.84,7.84a.33.33,0,0,0-.07.6C74.51,94.27,74.51,92.05,54,68.43A.36.36,0,0,0,53.37,68.49ZM254.9,223.74c1.54-3.26-2.39-11-5.48-12.25l0,0c-7.39-4.76-14-10.68-21.87-15.05-3.82-2,.44,2.73,1.68,3.64l0,0c7.61,8.7,15.46,17.13,25.17,23.76A.34.34,0,0,0,254.9,223.74Zm-9.54-75.09c-2.53.13-3.56,3.46-5.46,4.81l0,0c-1.83,1-1.16,2-2.2,3.17-3.19,3.9-6.59,7.66-10.09,11.35a1.25,1.25,0,0,0,1.63,1.87c4.92-3.17,10-6.18,15.05-9.12,3.44-1.73-2.31-4.68,1.43-11.61A.34.34,0,0,0,245.36,148.65ZM117.86,91.92c.67,3.53,5.22,16.14,5.59,19.76v.06c-.3,2.71,3.16,5.25,2.84,1.73-.9-9.09.1-18.32-1.56-27.34a.35.35,0,0,0-.65-.07c-1.22,2.9-1.75,6.8-5.77,5.48A.35.35,0,0,0,117.86,91.92Zm108.56,95.75c4.36.91,9.5-.1,13.57,1.92l0,0c2.71.82,9.57,2.44,11-.2a.33.33,0,0,0,0-.14c.06-1.81-1.9-5.24-3.68-5.59a.29.29,0,0,0-.13,0c-6.87,1.26-13.68,1.25-20.6,1.54A1.24,1.24,0,0,0,226.42,187.67ZM123.73,175.24c-6,6-10.51,13.16-15.79,19.83l0,0c-1.92,1.92,2,2.3,3.24,3.26a.32.32,0,0,0,.27.06c2.76-.7,3.46-6.22,5.42-8.47l0,0c2.51-4.63,5.62-9.5,7.42-14.32A.34.34,0,0,0,123.73,175.24ZM90.87,131c-7.05,1.12-14.74,6.29-22,8.94a.33.33,0,0,0-.1.56c1.59,1.34,3.22,2.48,3.66,4.68a.34.34,0,0,0,.54.19c6.1-4.78,12-9.43,18.15-13.78A.33.33,0,0,0,90.87,131Zm146.5-3.49a.34.34,0,0,0,.26-.43c-.64-2.07-3.26-5.79-5.16-4.08-4.84,4-8.88,9.93-12.23,14.82a.33.33,0,0,0,.42.48c1.82-.81,6.43-5.25,7.67-5.89a.17.17,0,0,1,.1,0C232.08,131.78,233.86,128.21,237.37,127.5Zm-20.12-4.62c2.17-1.31,3.93-4.11,6.23-5.48l0,0c.66-.54.72-1,.21-1.77l0-.06c-1.79-4.54-5.09,3.68-6.93,6.91A.33.33,0,0,0,217.25,122.88Zm-50-29.56a8.84,8.84,0,0,0,.86-3.48.29.29,0,0,1,0-.09c2.45-5.66,4.95-3.52-.9-7.07a.33.33,0,0,0-.51.31,37.18,37.18,0,0,1-.1,10.11A.34.34,0,0,0,167.21,93.32Zm19.9,135.84c-2.14,1.66-6.4,2-6,4.78a.34.34,0,0,0,.65.07c.25-.63.5-1.23,1.26-1.38,1.91-.37,2.84-2.1,4.43-2.92a.28.28,0,0,0,.13-.11C187.83,229.3,187.41,228.93,187.11,229.16ZM151.33,219c-.08-.12-.17-.14-.23,0S151.25,219.08,151.33,219Z"/></svg>