<svg id="Layer_1" data-name="Layer 1" xmlns="http://www.w3.org/2000/svg" width="10cm" height="10cm" viewBox="0 0 283.46 283.46"><defs><style>.cls-1{fill:#7a383f;}.cls-2{fill:#743438;}.cls-3{fill:#63292f;}</style></defs><title>tang -  sol</title><path class="cls-1" d="M176.3,69.5c3.83-4,8.33-11.45,12.16-11.45,3.49,0,5.9,4.48,6.68,7.88a48.83,48.83,0,0,1,.62,12.24,52.09,52.09,0,0,1-5.11,15.4,130.58,130.58,0,0,1-9.51,15.06c-2.65,3.67-5.4,7.28-7.78,11.12-4.68,7.54-5.76,13.16-6.73,22.92a38.31,38.31,0,0,0,1.07,11.61,29.91,29.91,0,0,0,.85-4.19c.45-4.34,1.13-8.65,1.95-12.94.92-4.79,3.39-8.82,5.95-12.85a50.63,50.63,0,0,1,13.68-14.07c3.66-2.61,7.65-4.73,11.16-7.58,1.54-1.26,2.67-2.94,4.19-4.14,3.41-2.7,6.71-5.55,10.16-8.19,6.35-4.86,12.76-9.63,20.17-12.87a14.44,14.44,0,0,1,6-1.41c2.72,0,5.56,2.4,5.63,4.87a8.88,8.88,0,0,1-1.67,5.85,73,73,0,0,1-7.22,8.2,59,59,0,0,0-13.77,19.46,72,72,0,0,1-4.67,9.34c-3.84,6.09-9.5,10.52-14.57,15.5a23.34,23.34,0,0,1-3.59,2.31c-2.9,2-5.75,4-9,5.23s-6.43,2.65-9.59,4.08a25.72,25.72,0,0,0-8.32,6,.53.53,0,0,0,.74.19c4.66-2.33,9.71-3.41,14.67-4.8a31.44,31.44,0,0,0,9.5-4.24c3.73-2.56,6.94-5.77,10.41-8.66,3-2.52,6.08-5.05,9.32-7.33,3.5-2.46,7.34-4.31,11-6.45a20.67,20.67,0,0,1,6.69-2.4c4-.77,8.21-.92,12.21-2a61.68,61.68,0,0,1,7.83-1.92c4.22-.61,8.18-2.39,12.46-2.8a4.43,4.43,0,0,1,5.13,4,5.13,5.13,0,0,1-.71,3.45c-1.49,2.11-2.49,4.56-4.35,6.42a2.53,2.53,0,0,0-.71.91c-1,2.83-3.14,4.83-5.34,6.72s-4.81,3.6-7,5.67a104.35,104.35,0,0,1-10.73,9c-4.19,3.07-8.64,5.77-12.68,9.07a20.58,20.58,0,0,1-5.89,3.48c-3.86,1.37-7.89,2.25-11.83,3.39a17.78,17.78,0,0,1-6.58.72c-4.09-.42-8.22-.44-12.3-1.13-2.48-.42-4.94-1.16-7.54-.89a5.28,5.28,0,0,1-3.42-.88c-2-1.4-4.29-1.48-6.57-1.7a13.16,13.16,0,0,1-1.89-.2c-3.38-.88-5.88.32-7.72,3.17a5.27,5.27,0,0,1-.72.95,3.77,3.77,0,0,0-1,3.72,21.28,21.28,0,0,1,.1,6.62,15.5,15.5,0,0,0-.05,5.65,40.59,40.59,0,0,1,9.89-4.58c1.45-.44,3-.55,4.4-1.06,4-1.45,7.34-4,10.66-6.61,1.21-.93,2.4-1.88,4-1.88,1.74,0,3.48.14,5.22.27,2.8.22,5.6,1.17,8.45.21.8-.27,1.36.32,1.79.91.55.77.05,1.37-.44,1.89a37,37,0,0,1-9.39,7.15c-4.08,2.13-8.44,2.61-12.89,2.82a83.32,83.32,0,0,0-14.6,1.77,6.45,6.45,0,0,0-3.63,1.55,5.83,5.83,0,0,0,.82.31,38,38,0,0,1,14,5.72c3,2.05,6.08,4,9.16,5.9a25.47,25.47,0,0,1,4.81,4.17c3.22,3.36,5.87,7.06,7.05,11.66a6.06,6.06,0,0,0,.4.86c.73,1.67,1.38,3.38,2.2,5,1.16,2.29.39,4.69.55,7a3.44,3.44,0,0,1-4.75,3.19,19.73,19.73,0,0,1-4.63-2.89,72.76,72.76,0,0,1-10.36-12.41,104,104,0,0,1-7.09-12.63c-1.39-2.72-3.1-5.2-5.87-6.68a98.91,98.91,0,0,0-8.89-4.52c-1.92-.8-2.23-.7-3.11,1.11a8.22,8.22,0,0,0-.39,1.12c-1.22,3.68-2.79,7.24-3.83,11-.86,3.13-2.53,6-2.94,9.28-.21,1.65-.43,3.3-.5,5a2.22,2.22,0,0,1-2.05,2.22,3.35,3.35,0,0,1-4.17-3.07c-.18-2,.12-4.12-.33-6.16-.83-3.76-2.53-7.17-4-10.66-.14-.32-.37-.49-1-.39-.35,1.38-1.52,2.35-2.47,3.5a44.85,44.85,0,0,0-3.91,5.05,27.76,27.76,0,0,1-3.13,4.44c-2.9,3.14-5.38,6.65-8.52,9.6-3.49,3.28-7.13,6.29-11.68,8-2.38.88-4.76,1.12-7.11-.27-2.55-1.52-3-2.89-1.51-5.48a6.53,6.53,0,0,1,.67-1c2-2.28,3.87-4.63,5.84-6.91,2.29-2.64,4.92-4.95,7-7.78a30.41,30.41,0,0,1,11-9.21,5,5,0,0,0,2.35-1.79,16.28,16.28,0,0,1-4.87-1.11,36.14,36.14,0,0,0-6.2-2.4,2.72,2.72,0,0,1-1.79-1.74c-.67-1.54-.88-1.59-2.07-.3-1.66,1.81-3.22,3.72-4.78,5.62-1.89,2.28-4.51,3.64-6.81,5.41a1.89,1.89,0,0,1-.39.26c-2.26.89-5-.61-4.86-2.9s.36-4.54,1.72-6.35a26.75,26.75,0,0,1,7.33-6.68,52.61,52.61,0,0,0,7.93-5.62,62.92,62.92,0,0,1,11.41-8.89,11.4,11.4,0,0,0,3.17-1.86c-4.68.22-9-.32-13.24.17-1.74.2-3.49.24-5.23.34-4.36.25-8.75,0-13.09.58-1.72.22-3.41.75-5.14.9-4.78.41-9-1.23-13.16-3.45-1.9-1-2.35-2.89-3-4.66a1.84,1.84,0,0,1,.49-1.77,9.77,9.77,0,0,1,7.33-3.86A51.59,51.59,0,0,1,101,162a64,64,0,0,0,18.48,1,17.13,17.13,0,0,1,8.9.8,26.19,26.19,0,0,0,5.94,1.7,13,13,0,0,1,6.74,3.27c.47.42.88,1.11,1.82,1-.27-2.08,0-4.09-1.21-6-1.78-2.88-3.76-5.63-5.44-8.58a25.24,25.24,0,0,0-2.54-3.72,44.65,44.65,0,0,0-5.76-5.33,25.62,25.62,0,0,0-16.5-6.39,117.81,117.81,0,0,1-12.6-.34,113.16,113.16,0,0,0-12.31-1c-11.12,0-22.24.37-33.33-.87-1.73-.19-3.46-.43-5.16-.78a46.24,46.24,0,0,1-17.65-7.39c-3.3-2.33-6.74-4.47-10.17-6.63-4.82-3.05-8.06-7.58-11.34-12.06-.69-1-.42-1.86.85-2.51,3.73-1.93,6.31-5.27,9.61-7.74a19.2,19.2,0,0,1,8-3.91c2.38-.47,4.74.08,7.1.06a11.28,11.28,0,0,1,7.1,2.26A8.4,8.4,0,0,0,48,100.35a32.23,32.23,0,0,1,10.91,0c4.34.94,8.66,2,12.89,3.35a32.28,32.28,0,0,0,8.11,1.84c-.06-.24-.05-.44-.14-.52-3.8-3.17-6.63-7.25-10.12-10.72a48.58,48.58,0,0,1-9.8-13.68c-1.28-2.71-4.87-29.5,1.46-29.5,5.28,0,14.16,3.57,20.75,9.06,2.86,2.39,9,8,11,9.78s9.22,9.34,10.28,10.55c3.4,3.87,6.75,7.8,9.89,11.89a131.54,131.54,0,0,1,10.92,16.69c1.94,3.54,4.33,6.84,5.7,10.68,1.17,3.28,2.27,6.59,3.53,9.84.68,1.75,1.46,3.5,2,5.31,1,3.65,2,7.31,3.17,10.93a41.94,41.94,0,0,1,1.95,6.85c.47,3.28,2.62,5.66,3.74,8.76,2.33-2.89,2.66-5.91,2.35-9.17a82.93,82.93,0,0,0-2.79-13.73c-1.06-3.93-2.37-7.8-3.66-11.66-.78-2.33-1.85-4.55-2.69-6.86a169.46,169.46,0,0,1-5.12-17.33,47.57,47.57,0,0,1-1-18.17c.27-2,.88-4,1.21-6,.37-2.33,1.71-9.27,3-11.16,4.06-6,11.58-16.22,15.27-16.22s5.54,8.57,6.91,14.55c.72,3.1,2.11,6.93,2.39,9.06.48,3.67-.71,15.42-.8,17a160.33,160.33,0,0,1,10.17-12.6C171.38,76.82,174.22,71.7,176.3,69.5ZM155.85,97.09c-2.46,2.85-3.51,6.12-4.57,9.29a30.93,30.93,0,0,0,1.83,24.41c1,2.06,2.37,3.89,3.46,5.89a3,3,0,0,1,.49,2.46c-1.46,4.67-3.25,9.22-5,13.78a85.37,85.37,0,0,0-3.37,8.64,9.2,9.2,0,0,0,1.92,8.9,7.09,7.09,0,0,0,6.24,2.29c2.58-.2,6.3-4.25,6.49-6.84.12-1.72.2-3.44.18-5.18a49.47,49.47,0,0,0-4.54-20c-2-4.39-4.2-8.73-5.27-13.47-.7-3.07-1.86-6-1.88-9.29,0-4.63.17-9.19,1.75-13.59.32-.89-.21-1.91.47-2.73C155.08,100.39,155.24,98.8,155.85,97.09Zm-34.2,95.5a13.91,13.91,0,0,0,2.08-1.6,36.47,36.47,0,0,1,3.51-3.19c1.25-1.12,1.91-1,3.07.28a57.74,57.74,0,0,0,6.42,5.57c2.14,1.77,4.91,1.47,7.53,1.46,1.13,0,1.49-.38,1.41-1.56-.26-4-.4-8.06-.59-12.09,0-1,0-2.06-.16-3.08a2.06,2.06,0,0,0-1.94-2.07c-3.09-.18-6.1-.15-9,1.38a17.78,17.78,0,0,0-7.2,7,18.88,18.88,0,0,1-3.12,4.28A5.23,5.23,0,0,0,121.65,192.59Z"/><path class="cls-2" d="M113.46,178.87a8.83,8.83,0,0,1,4.87,1.77c1.14.91,1.08,1.68-.26,2.27a5.07,5.07,0,0,0-2.26,2,5.64,5.64,0,0,1-3.94,2.37,2.61,2.61,0,0,1-2.75-.95,15.24,15.24,0,0,0-2.37-2.63,2,2,0,0,1,.77-3.51C109.55,179.56,111.66,179.25,113.46,178.87Z"/><path class="cls-3" d="M169.72,167.49a.5.5,0,0,1-.05.13,4.56,4.56,0,0,1-.68.89,3.77,3.77,0,0,0-1,3.72,21.28,21.28,0,0,1,.1,6.62,16.38,16.38,0,0,0-.14,5.2.31.31,0,0,0,.47.21,40.26,40.26,0,0,1,9.51-4.34c1.45-.44,3-.55,4.4-1.06,4-1.45,7.34-4,10.66-6.61,1.21-.93,2.4-1.88,4-1.88,1.74,0,3.48.14,5.22.27,2.8.22,5.6,1.17,8.45.21.8-.27,1.36.32,1.79.91.55.77.05,1.37-.44,1.89a37,37,0,0,1-9.39,7.15c-4.08,2.13-8.44,2.61-12.89,2.82a83.32,83.32,0,0,0-14.6,1.77,7.31,7.31,0,0,0-3.27,1.22.3.3,0,0,0,.08.51,1.71,1.71,0,0,0,.38.13,38,38,0,0,1,14,5.72c3,2.05,6.08,4,9.16,5.9a25.47,25.47,0,0,1,4.81,4.17c3.22,3.36,5.87,7.06,7.05,11.66a6.06,6.06,0,0,0,.4.86c.73,1.67,1.38,3.38,2.2,5,1.16,2.29.39,4.69.55,7a3.44,3.44,0,0,1-4.75,3.19,19.73,19.73,0,0,1-4.63-2.89,72.76,72.76,0,0,1-10.36-12.41,104,104,0,0,1-7.09-12.63c-1.39-2.72-3.1-5.2-5.87-6.68a98.91,98.91,0,0,0-8.89-4.52c-1.92-.8-2.23-.7-3.11,1.11a8.22,8.22,0,0,0-.39,1.12c-1.22,3.68-2.79,7.24-3.83,11-.86,3.13-2.53,6-2.94,9.28-.21,1.65-.43,3.3-.5,5a2.22,2.22,0,0,1-2.05,2.22,3.35,3.35,0,0,1-4.17-3.07c-.18-2,.12-4.12-.33-6.16-.83-3.76-2.53-7.17-4-10.66a.66.66,0,0,0-.76-.42.31.31,0,0,0-.27.22c-.41,1.28-1.52,2.21-2.42,3.31a44.85,44.85,0,0,0-3.91,5.05,27.76,27.76,0,0,1-3.13,4.44c-2.9,3.14-5.38,6.65-8.52,9.6-3.49,3.28-7.13,6.29-11.68,8-2.38.88-4.76,1.12-7.11-.27-2.55-1.52-3-2.89-1.5-5.48a7.84,7.84,0,0,1,.82-1.16c1.92-2.22,3.76-4.52,5.68-6.73,2.29-2.64,4.92-4.95,7-7.78a30.41,30.41,0,0,1,11-9.21,5.58,5.58,0,0,0,2-1.36.3.3,0,0,0-.19-.5,14.38,14.38,0,0,1-4.36-1,36.14,36.14,0,0,0-6.2-2.4,2.72,2.72,0,0,1-1.79-1.74c-.67-1.54-.88-1.59-2.07-.3-1.66,1.81-3.22,3.72-4.78,5.62-1.89,2.28-4.51,3.64-6.81,5.41a1.89,1.89,0,0,1-.39.26c-2.26.89-5-.61-4.86-2.9s.36-4.54,1.72-6.35a26.75,26.75,0,0,1,7.33-6.68,52.61,52.61,0,0,0,7.93-5.62,62.92,62.92,0,0,1,11.41-8.89,23.72,23.72,0,0,0,2.48-1.28.31.31,0,0,0-.19-.55c-4.34.13-8.35-.32-12.36.14-1.74.2-3.49.24-5.23.34-4.36.25-8.75,0-13.09.58-1.72.22-3.41.75-5.14.9-4.78.41-9-1.23-13.16-3.45-1.9-1-2.35-2.89-3-4.66a1.84,1.84,0,0,1,.49-1.77,9.77,9.77,0,0,1,7.33-3.86A51.59,51.59,0,0,1,101,162a64,64,0,0,0,18.48,1c3-.35,6-.43,8.91.81a27.34,27.34,0,0,0,6.06,1.71,13,13,0,0,1,6.61,3.25c.4.36.76.92,1.45,1a.31.31,0,0,0,.33-.34,17.32,17.32,0,0,0-.69-4.72,19.82,19.82,0,0,1-.44-3.84c.19-.53,2.39,2.62,3.1,2.62.88,0,1.81-4.25,2.63-4,.52.12,1.08,2.8,1,3.13a9,9,0,0,0,2.14,7.9,7.09,7.09,0,0,0,6.24,2.29c2.56-.2,6.25-4.2,6.48-6.79l0-.1c.17-.35,1.26-2.49,2-2.38s2.89-3.37,4.23-5.51a.31.31,0,0,1,.56.23c-.55,2.33-1.31,6-.74,6.24S169.77,167.06,169.72,167.49Zm-48,24.36a.3.3,0,0,0,.47.31,8,8,0,0,0,1.5-1.17,36.47,36.47,0,0,1,3.51-3.19c1.25-1.12,1.91-1,3.07.28a57.74,57.74,0,0,0,6.42,5.57c2.14,1.77,4.91,1.47,7.53,1.46,1.13,0,1.49-.38,1.41-1.56-.26-4-.4-8.06-.59-12.09,0-1,0-2.06-.16-3.08a2.06,2.06,0,0,0-1.94-2.07c-3.09-.18-6.1-.15-9,1.38a17.78,17.78,0,0,0-7.2,7,18.88,18.88,0,0,1-3.12,4.28A5.49,5.49,0,0,0,121.76,191.85Z"/><path class="cls-3" d="M113.46,178.87a8.83,8.83,0,0,1,4.87,1.77c1.14.91,1.08,1.68-.26,2.27a5.07,5.07,0,0,0-2.26,2,5.64,5.64,0,0,1-3.94,2.37,2.61,2.61,0,0,1-2.75-.95,15.24,15.24,0,0,0-2.37-2.63,2,2,0,0,1,.77-3.51C109.55,179.56,111.66,179.25,113.46,178.87Z"/><path class="cls-3" d="M206.59,158.71c-1.79,1.64-7.18,6.28-6.44,6.92,1.67,1.43,8.41,1.3,10,1.43,2.86.24,5.23.12,6.92-.95a10.52,10.52,0,0,0,3.34-3.34c1.67-2.87,2.6-6.2,2.38-7.87-.38-2.87-6.71-.85-8.58,0C211.81,156,208.27,157.18,206.59,158.71Z"/><path class="cls-3" d="M89.19,110.33c-.77,2.06.21,10,6.73,14.51,2.72,1.88,13.52,7.7,15,6.92,2.57-1.34-5.39-10.44-6.82-11.91C98.54,114.59,89.54,109.41,89.19,110.33Z"/></svg>