<svg id="Layer_1" data-name="Layer 1" xmlns="http://www.w3.org/2000/svg" width="10cm" height="10cm" viewBox="0 0 283.46 283.46"><defs><style>.cls-1{fill:#897522;}.cls-2{fill:#7a681c;}.cls-3{fill:#968127;}</style></defs><title>tang -  blaeretang</title><path class="cls-1" d="M119.92,102a12.33,12.33,0,0,0,.61,3.63c.42,1.3,1.67,1.89,3.51,1.83,1.24,0,1.75-.45,2.23-1.9a10.44,10.44,0,0,0,.68-3.84,29.53,29.53,0,0,0-.28-3.88,23.37,23.37,0,0,0-2.59-8.9,2.81,2.81,0,0,0-2.69-1.77,3.43,3.43,0,0,0-3,2.41c-.6,2.52-1,5.17.39,7.63A9.18,9.18,0,0,1,119.92,102Z"/><path class="cls-1" d="M94.58,28.51c-2.14-.74-3.78,0-4.46,2.2-.42,1.39-1.27,2.83-.34,4.39a1.72,1.72,0,0,1,.06,1.06,7.25,7.25,0,0,0,1.58,5.28c.56.83,1.13,1.68,2.36,1.45a3,3,0,0,0,2.46-2.11,18.61,18.61,0,0,0,.66-4.73,10.39,10.39,0,0,0-1.29-6.5A2,2,0,0,0,94.58,28.51Z"/><path class="cls-1" d="M115.87,107.3c-.14-2.74-2-4.62-4.12-6.07a2.2,2.2,0,0,0-2.77.15,6.23,6.23,0,0,1-1.62,1c-4.51,1.89-5.71,5.16-4.93,10.19a30,30,0,0,0,2.22,6.56c1.08,2.65,3.27,4,5.8,5a1.42,1.42,0,0,0,1.91-.86A29,29,0,0,0,115.58,113,43.3,43.3,0,0,0,115.87,107.3Z"/><path class="cls-1" d="M122.93,165.65a12.55,12.55,0,0,0-3.26-3.69c-1.1-.81-1.54-.74-2.15.52a15.9,15.9,0,0,0-1.81,7.09,17.47,17.47,0,0,0,2.29,8.71c.86,1.49,2,2.89,2.66,4.41a5.81,5.81,0,0,0,3.71,3.23c2.45.85,3.17.39,3.15-2.18,0-.22,0-.44,0-1.08.16-2.29-.79-4.84-1.15-7.48A24.83,24.83,0,0,0,122.93,165.65Z"/><path class="cls-1" d="M134.06,131a3,3,0,0,0-5.12,1.17,31.19,31.19,0,0,0-1.61,8,17,17,0,0,0,2.24,9.81,6.59,6.59,0,0,0,3.16,3.09,3.32,3.32,0,0,0,2.2.51c.93-.22.45-1.06.59-1.63a1.11,1.11,0,0,1,.09-.19c1.59-3.16,1.78-6.62,2-10.07,0-.51,0-1,0-1.52C137.43,136.76,136.57,133.54,134.06,131Z"/><path class="cls-1" d="M126.29,55.82c2.29-2.76,3.66-5.82,2.61-9.56a4,4,0,0,0-1-1.89c-.82-.78-1.62-.81-2.08.2-1.49,3.25-3.5,6.32-3.47,10.14a4.93,4.93,0,0,0,.68,2.65C124.22,57,125.48,56.79,126.29,55.82Z"/><path class="cls-1" d="M86.31,47.56c-2.32,0-3.57,1-4,3.24a9.84,9.84,0,0,0-.19,2.59c.22,2.52.44,5,2.41,7,1.49,1.46,2.73,1.38,3.75-.42.36-.62.65-1.29,1-1.9,2.21-3.44,1.64-5.58-.63-9.24A2.4,2.4,0,0,0,86.31,47.56Z"/><path class="cls-1" d="M109.25,17.2c-1.42-.74-2.06-.43-2.34,1.21a11.56,11.56,0,0,0,.26,4.11c.5,2.62,1.17,5.27,4,6.72a13.21,13.21,0,0,0,1.59-4.64A6.62,6.62,0,0,0,109.25,17.2Z"/><path class="cls-1" d="M192,122.82c-4.14,2.54-8.16,5.22-10.86,9.52a27.21,27.21,0,0,0-3.11,7.81,2.08,2.08,0,0,0,0,.86c.15.82.49,1.2,1.46,1.07a11.67,11.67,0,0,1,2.23-.51,19.71,19.71,0,0,0,12.13-3.92,6.78,6.78,0,0,0,3.15-4.72c.19-1.43.34-2.87.51-4.31a21.93,21.93,0,0,0-.35-3C196.84,122.68,194.39,121.32,192,122.82Z"/><path class="cls-1" d="M246.15,50.82c-.06-.41.33-1.11-.35-1.43s-1.08.06-1.57.38c-2.53,1.66-3.12,3.25-2.38,6.41.36,1.55,1,1.78,2.24.93a3.14,3.14,0,0,0,1.09-1.55A13,13,0,0,0,246.15,50.82Z"/><path class="cls-1" d="M248.28,76.75c-2.29-.67-3.31.08-3.39,2.72-.41,1.11.28,2,1.28,2.47a5,5,0,0,0,4.1.34,2.29,2.29,0,0,0,.72-4.06A6.77,6.77,0,0,0,248.28,76.75Z"/><path class="cls-1" d="M198.34,30.59a5.16,5.16,0,0,0-3.88,2.7c-1.31,2.18-1.47,4.7-1.79,7.12-.51,3.83,1,6.67,4.27,8.16,1.95.9,3.12.65,4.3-1.23a11.76,11.76,0,0,0,1.87-6.71c-.68-2.09-.1-4.92-1.12-7.55C201.29,31.27,200.19,30.37,198.34,30.59Z"/><path class="cls-1" d="M167.64,132.93c-1-.26-2.08-1-3.17-.64a11,11,0,0,0-6.64,4.73,15.8,15.8,0,0,0-2.29,8.89c0,1.06.2,2.15.29,3.24a26.27,26.27,0,0,0,.51,3.87c.68,3,3.19,3.94,5.69,2.18,5.22-3.69,7.37-9,7.43-15.29a19,19,0,0,0-.93-5.35C168.34,134,168.29,133.09,167.64,132.93Z"/><path class="cls-1" d="M192.21,76.29a12.72,12.72,0,0,0,.63-3.82c.19-3.53-1-6.25-2-9a5,5,0,0,0-1.29-2,3.62,3.62,0,0,0-6.11,1.15,11.16,11.16,0,0,0-1.4,4.94,26,26,0,0,0,.87,6.63,8.33,8.33,0,0,0,3,4.13C188.37,80.28,191.31,79.3,192.21,76.29Z"/><path class="cls-1" d="M161.79,173.78a21.17,21.17,0,0,1-3.65,1.09c-4.61.61-6.66,4.16-8.66,7.75a12.18,12.18,0,0,0-1,3.08,12,12,0,0,0-.18,5c.13.74.48,1,1.18.8a9.23,9.23,0,0,1,3-.23,9.5,9.5,0,0,0,4.73-1,25.19,25.19,0,0,0,5.28-3.24,9.62,9.62,0,0,0,3.85-7.66c0-.8-.18-1.59-.2-2.38C166,174.14,164.41,172.93,161.79,173.78Z"/><path class="cls-2" d="M267,65.22c-.62-.6-1.53-.94-2-1.62s-.73-.47-1.47-.37a24.13,24.13,0,0,0-4.34,1,13.92,13.92,0,0,1-4,.47c-2.32,0-3.24-1.51-2.13-3.58a13.19,13.19,0,0,1,.91-1.21,28.23,28.23,0,0,1,4.94-4.77,17.32,17.32,0,0,0,5.81-8.92,6.41,6.41,0,0,0-6.57-8.28c-2.61.12-4.75,1.43-6.86,2.76a9.62,9.62,0,0,1-6.86,1.69c-2.75-.43-4.7,1-6,3.23a30.91,30.91,0,0,0-3,6.48c-.87,2.74-.28,8-1.17,10.2a6.44,6.44,0,0,1-2.93,3.08c-.72.42-1,1.4-2.24,1.3a3.8,3.8,0,0,0-2.57.73,1.72,1.72,0,0,1-1.44.1,3.72,3.72,0,0,1-3.22-3.54,19.77,19.77,0,0,1,2.58-13.17c2.08-3.65,3.89-7.41,4.37-11.71A10.79,10.79,0,0,0,227,31.39a7.74,7.74,0,0,1-1.34-5.55,42.52,42.52,0,0,1,1.72-7.42,23.68,23.68,0,0,0,.78-4.5,3.35,3.35,0,0,0-2-3.71c-2.41-.84-4.85-1.74-7.48-1.3a34.52,34.52,0,0,1-6.58.25c-3.71-.08-6,1.32-7.5,4.77a13.91,13.91,0,0,0-.63,1.62,6.29,6.29,0,0,1-1.81,2.66c-1.24,1.18-1.58,1.22-2.93.21a10.65,10.65,0,0,1-2.24-2c-2.32-3-5.68-4.44-8.63-6.47a4.12,4.12,0,0,0-3.47-.59,33.08,33.08,0,0,1-3.55.66,19.46,19.46,0,0,0-11.77,6.86,14,14,0,0,0-2.76,14.29,27.11,27.11,0,0,0,2.31,5.41c1.31,2.19,2.35,4.6,4.18,6.42,3.56,3.56,4.48,7.81,3.5,12.7-.75,3.66-2.65,7.1-2.2,11,0,.14-.09.28-.11.42-.29,3.08-.21,6.09,1.52,8.81A17.77,17.77,0,0,0,179.47,80c3,2.56,6,5.12,8.93,7.75,1.54,1.38,1.77,3,.59,4.59a14.26,14.26,0,0,1-3.76,3.79,38.16,38.16,0,0,0-4.94,3.77,14.9,14.9,0,0,0-3.16,3.78c-1.3,2.25-2.44,4.57-3.58,6.91a11,11,0,0,0-.84,2.59,26.19,26.19,0,0,0-.33,6.73,5.93,5.93,0,0,1-4.63,5.92c-2.44.38-4.79,1.28-7.2,1.88-3,.75-5.28,2.66-7.3,5a9.58,9.58,0,0,0-2.39,4.05,44.09,44.09,0,0,0-1.31,12.74c.29,4.11.18,8.15-1.51,12a11.43,11.43,0,0,1-3.65,4.7c-1.77,1.28-4.12.51-4.37-1.54-.34-2.76-.75-5.58.61-8.27a31.5,31.5,0,0,0,1.72-4.21,33.52,33.52,0,0,0,1.71-5.61,41,41,0,0,0,.24-6.08,17.29,17.29,0,0,0-.79-5.79c-1.14-3.35-.74-6.53-3.54-8.32a14.88,14.88,0,0,0-3.7-2,4.3,4.3,0,0,1-3.09-4,83.2,83.2,0,0,1-.59-10.82,87.72,87.72,0,0,0,.21-9.59c-.15-2.09.31-4.21-.48-6.26s-1.4-4-2.12-5.93A9.77,9.77,0,0,0,126,82.41c-.86-.51-1.65-1.14-2.48-1.7a3.11,3.11,0,0,1-1.43-2.95,11.64,11.64,0,0,1,1.28-5,103.18,103.18,0,0,1,8-13.36,27.52,27.52,0,0,0,4.52-9.77,10,10,0,0,0-.65-6.78,15.7,15.7,0,0,1-.93-10,30.57,30.57,0,0,1,3.27-8,16.41,16.41,0,0,0,1.91-6.37c.24-3.06-1.63-5.39-4.63-5-2.28.29-4.77,0-6.79,1.75a2.24,2.24,0,0,1-3.41-.31,7.88,7.88,0,0,0-1.69-1.33A10.17,10.17,0,0,1,118.56,6,12.63,12.63,0,0,0,117,2a1.55,1.55,0,0,0-1.43-.79A41.06,41.06,0,0,0,109.18,1a5.78,5.78,0,0,0-4.06,1.69c-2.23,2.62-4.52,5.26-4.74,9-.06,1.09-.21,2.17-.27,3.25-.26,5,.37,9.91,2.92,14.29a59.51,59.51,0,0,0,5.62,8.14c3,3.56,5.39,7.47,5.87,12.33.07.81.09,1.49-.58,1.92a12.33,12.33,0,0,1-3.68,1.66,2.39,2.39,0,0,1-2.2-.51A33.6,33.6,0,0,1,104.45,49a9,9,0,0,1-2.11-6.25c.08-1.74.07-3.49.1-5.23a3.73,3.73,0,0,1,.23-1.72,5.2,5.2,0,0,0,0-3.8,26.9,26.9,0,0,0-1.34-4.13c-.72-1.73-1.41-3.58-3-4.64-2.11-1.39-2.58-3.45-2.79-5.78-.3-3.39-.53-6.79-1-10.16a3.28,3.28,0,0,0-2.62-3.07c-2.28-.44-4.63-.78-6.85.4a3.94,3.94,0,0,0-1.37,1,12.45,12.45,0,0,0-3,8,32.36,32.36,0,0,0,2,11.72,18.42,18.42,0,0,1,.94,3.34c.41,2.16-.46,2.85-2.5,2.08a5.55,5.55,0,0,1-3.52-3.24c-.5-1.28-1.28-2.46-1.69-3.76a13.26,13.26,0,0,0-6.15-7.49c-3.28-2-6.07-1.29-8.06,2.08-1.15,2-1.94,4.12-3.42,5.89C57.6,25.08,57,26,56.29,27c-1.19,1.64-1.38,5.65-.24,7.27a10.8,10.8,0,0,0,5.56,4.18c4.23,1.4,8.65,2.21,12.47,4.86a2.89,2.89,0,0,1,1.6,2.21,8.58,8.58,0,0,1-.11,3,9.45,9.45,0,0,0-.1,3.67A55.17,55.17,0,0,0,78.09,62.7,15.78,15.78,0,0,1,79.37,69c0,1.58.89,2.34,2.46,2.28a14.47,14.47,0,0,1,2.55.07,2.89,2.89,0,0,1,2.67,2.4,7.26,7.26,0,0,1,.1,3c-.22,1.23-.81,2.32-1,3.53a20.24,20.24,0,0,0,0,5,3.28,3.28,0,0,0,2.46,3,13.53,13.53,0,0,1,6.74,5.08,17.4,17.4,0,0,1,3.08,6.53,4.91,4.91,0,0,1-.21,2.57,40,40,0,0,0-1.58,11.16,16.84,16.84,0,0,0,3.64,10.27c1.21,1.71,3.15,2.57,4.79,3.78a14.87,14.87,0,0,1,2.63,2.18c2.42,2.83,5,5.55,6.41,9.12a7.45,7.45,0,0,1,.74,4,4.4,4.4,0,0,0,.21,1.71c1.39,5,.41,9.65-1.75,14.1-1.57,3.25-3.47,6.33-4.68,9.76a7.76,7.76,0,0,0-.5,2.55,22,22,0,0,0,2.53,10.68,8.41,8.41,0,0,0,1.1,1.6q2.85,3.19,5.76,6.32a9.37,9.37,0,0,0,3.31,2.65,2.21,2.21,0,0,1,.69.5c1.75,1.55,3.39,3.2,5.24,4.65,2.54,2,2.94,5.19,3.68,8.14s-.4,5.72-1,8.54a6.73,6.73,0,0,1-.67,2.06c-1.35,2.29-1.64,4.94-2.55,7.38-.73,2-.06,3.84.09,5.76a7.89,7.89,0,0,0,.39,1.92,13.48,13.48,0,0,1-1,9.73,7.38,7.38,0,0,0,.26,6.7c1.32,2.58,1.65,5.4,2.16,8.17.48,2.6-.51,5.06-1.35,7.43a30.77,30.77,0,0,0-2.11,10.16,1.06,1.06,0,0,1-.18.55c-1.73,3-5.11-.09-5.27.73-.76,4,0,7.84,4.3,7.84a7.07,7.07,0,0,0,3.29-1.77,12.88,12.88,0,0,0,2-4,2.12,2.12,0,0,1,1.88-1.55,3.6,3.6,0,0,0,2.14-1.33,18,18,0,0,0,4.5-9.6,6.28,6.28,0,0,1,1.32-3.39,10.16,10.16,0,0,0,2.82-7.23c0-1.66.7-3.24,1-4.85.46-2.53.74-5.17-.54-7.67a3.69,3.69,0,0,1,.29-3.73,23.33,23.33,0,0,1,2.05-2.77c1.18-1.46,1.73-3,.47-4.75a2.79,2.79,0,0,1-.49-2.48c1-3.33-.45-5.6-3.08-7.35a4.17,4.17,0,0,1-1.85-2,16.41,16.41,0,0,1-.3-9.44c1.08-4.16,4.21-6.55,7.67-8.26a31.6,31.6,0,0,1,9.57-2.85,14.18,14.18,0,0,0,6.2-2.1A34.62,34.62,0,0,0,174.78,181a11.76,11.76,0,0,0,1.14-7.18c-.72-4,.25-7.8,1.89-11.41a15.69,15.69,0,0,1,2.61-4.72c2.42-2.48,4.38-5.41,7.38-7.36,2.5-1.62,4.74-3.69,7.41-5.08a16.4,16.4,0,0,0,5.06-4.3,23.12,23.12,0,0,0,5-13.79,42.9,42.9,0,0,1,.85-6.48,9.14,9.14,0,0,1,3.82-5.57,20.87,20.87,0,0,0,2.28-1.9c1.44-1.42,2.73-3,4.16-4.37a30.37,30.37,0,0,0,6.73-11c.85-2.13.9-4.42,1.94-6.5,1.31-2.63,2.32-5.38,4.39-7.58a3.17,3.17,0,0,1,2.78-1.22,15.33,15.33,0,0,1,5.59,1.22,61.61,61.61,0,0,0,6.87,2.93c3.08,1.14,6.23,2,9.58,1.45a5.59,5.59,0,0,0,5-5.73c0-.44,0-.87,0-1.31a4.55,4.55,0,0,1,2.55-4.16,14,14,0,0,0,5.95-6.06A4.56,4.56,0,0,0,267,65.22ZM125.81,44.57c.46-1,1.26-1,2.08-.2a4,4,0,0,1,1,1.89c1,3.74-.32,6.8-2.61,9.56-.81,1-2.07,1.17-3.27,1.54a4.93,4.93,0,0,1-.68-2.65C122.31,50.89,124.32,47.82,125.81,44.57Zm-13.07-20a13.21,13.21,0,0,1-1.59,4.64c-2.81-1.45-3.48-4.1-4-6.72a11.56,11.56,0,0,1-.26-4.11c.28-1.64.92-1.95,2.34-1.21A6.62,6.62,0,0,1,112.74,24.6ZM89.36,58c-.39.61-.68,1.28-1,1.9-1,1.8-2.26,1.88-3.75.42-2-1.92-2.19-4.45-2.41-7a9.84,9.84,0,0,1,.19-2.59c.39-2.24,1.64-3.26,4-3.24a2.4,2.4,0,0,1,2.42,1.24C91,52.46,91.57,54.6,89.36,58Zm7.54-22a18.61,18.61,0,0,1-.66,4.73,3,3,0,0,1-2.46,2.11c-1.23.23-1.8-.62-2.36-1.45a7.25,7.25,0,0,1-1.58-5.28,1.72,1.72,0,0,0-.06-1.06c-.93-1.56-.08-3,.34-4.39.68-2.21,2.32-2.94,4.46-2.2a2,2,0,0,1,1,1A10.39,10.39,0,0,1,96.9,36.05Zm21.45,53.52a3.43,3.43,0,0,1,3-2.41,2.81,2.81,0,0,1,2.69,1.77,23.37,23.37,0,0,1,2.59,8.9,29.53,29.53,0,0,1,.28,3.88,10.44,10.44,0,0,1-.68,3.84c-.48,1.45-1,1.86-2.23,1.9-1.84.06-3.09-.53-3.51-1.83a12.33,12.33,0,0,1-.61-3.63,9.18,9.18,0,0,0-1.18-4.79C117.31,94.74,117.75,92.09,118.35,89.57ZM115.58,113a29,29,0,0,1-3.22,10.25,1.42,1.42,0,0,1-1.91.86c-2.53-.93-4.72-2.31-5.8-5a30,30,0,0,1-2.22-6.56c-.78-5,.42-8.3,4.93-10.19a6.23,6.23,0,0,0,1.62-1,2.2,2.2,0,0,1,2.77-.15c2.13,1.45,4,3.33,4.12,6.07A43.3,43.3,0,0,1,115.58,113Zm11.94,69.67c0,.64,0,.86,0,1.08,0,2.57-.7,3-3.15,2.18a5.81,5.81,0,0,1-3.71-3.23c-.71-1.52-1.8-2.92-2.66-4.41a17.47,17.47,0,0,1-2.29-8.71,15.9,15.9,0,0,1,1.81-7.09c.61-1.26,1-1.33,2.15-.52a12.55,12.55,0,0,1,3.26,3.69,24.83,24.83,0,0,1,3.44,9.53C126.73,177.82,127.68,180.37,127.52,182.66Zm10.13-40.91c-.26,3.45-.45,6.91-2,10.07a1.11,1.11,0,0,0-.09.19c-.14.57.34,1.41-.59,1.63a3.32,3.32,0,0,1-2.2-.51,6.59,6.59,0,0,1-3.16-3.09,17,17,0,0,1-2.24-9.81,31.19,31.19,0,0,1,1.61-8,3,3,0,0,1,5.12-1.17c2.51,2.52,3.37,5.74,3.59,9.21C137.68,140.73,137.65,141.24,137.65,141.75ZM162.47,187a25.19,25.19,0,0,1-5.28,3.24,9.5,9.5,0,0,1-4.73,1,9.23,9.23,0,0,0-3,.23c-.7.22-1.05-.06-1.18-.8a12,12,0,0,1,.18-5,12.18,12.18,0,0,1,1-3.08c2-3.59,4.05-7.14,8.66-7.75a21.17,21.17,0,0,0,3.65-1.09c2.62-.85,4.25.36,4.33,3.18,0,.79.2,1.58.2,2.38A9.62,9.62,0,0,1,162.47,187ZM162,155.2c-2.5,1.76-5,.82-5.69-2.18a26.27,26.27,0,0,1-.51-3.87c-.09-1.09-.25-2.18-.29-3.24a15.8,15.8,0,0,1,2.29-8.89,11,11,0,0,1,6.64-4.73c1.09-.33,2.12.38,3.17.64.65.16.7,1,.89,1.63a19,19,0,0,1,.93,5.35C169.4,146.23,167.25,151.51,162,155.2Zm23.88-76.89a8.33,8.33,0,0,1-3-4.13,26,26,0,0,1-.87-6.63,11.16,11.16,0,0,1,1.4-4.94,3.62,3.62,0,0,1,6.11-1.15,5,5,0,0,1,1.29,2c1,2.79,2.18,5.51,2,9a12.72,12.72,0,0,1-.63,3.82C191.31,79.3,188.37,80.28,185.91,78.31Zm11.55,50.31c-.17,1.44-.32,2.88-.51,4.31a6.78,6.78,0,0,1-3.15,4.72,19.71,19.71,0,0,1-12.13,3.92,11.67,11.67,0,0,0-2.23.51c-1,.13-1.31-.25-1.46-1.07a2.08,2.08,0,0,1,0-.86,27.21,27.21,0,0,1,3.11-7.81c2.7-4.3,6.72-7,10.86-9.52,2.44-1.5,4.89-.14,5.16,2.76A21.93,21.93,0,0,1,197.46,128.62Zm3.78-81.28c-1.18,1.88-2.35,2.13-4.3,1.23-3.25-1.49-4.78-4.33-4.27-8.16.32-2.42.48-4.94,1.79-7.12a5.16,5.16,0,0,1,3.88-2.7c1.85-.22,2.95.68,3.65,2.49,1,2.63.44,5.46,1.12,7.55A11.76,11.76,0,0,1,201.24,47.34Zm42.85,9.77c-1.29.85-1.88.62-2.24-.93-.74-3.16-.15-4.75,2.38-6.41.49-.32,1-.64,1.57-.38s.29,1,.35,1.43a13,13,0,0,1-1,4.74A3.14,3.14,0,0,1,244.09,57.11Zm6.18,25.17a5,5,0,0,1-4.1-.34c-1-.5-1.69-1.36-1.28-2.47.08-2.64,1.1-3.39,3.39-2.72A6.77,6.77,0,0,1,251,78.22,2.29,2.29,0,0,1,250.27,82.28Z"/><path class="cls-2" d="M24.8,127.16c-1.12-.18-1.52.21-1.53,1.41,0,4.71,2.56,8,5.79,10.86.94.83,1.55.49,1.71-.73.08-.57.09-1.15.13-1.73-.65-3.21-1.56-6.31-3.8-8.79A3.74,3.74,0,0,0,24.8,127.16Z"/><path class="cls-2" d="M78.71,195.58a9.69,9.69,0,0,0-3.29-2,3.4,3.4,0,0,0-4.55,2,7.62,7.62,0,0,0-.56,3c.53,5.45,1.62,10.62,6.28,14.19a3.68,3.68,0,0,0,5.63-1,15.26,15.26,0,0,0,1.64-6A14.56,14.56,0,0,0,78.71,195.58Z"/><path class="cls-2" d="M83.73,165c-.66-1.68-1.53-3.08-3.61-3.09.08-.57.31-.54.5-.58s.7-.05.26-.45-.61-.12-.89.23a10.69,10.69,0,0,0-1.92,2.26,10.55,10.55,0,0,0,4.22,13.39,2,2,0,0,0,3-.85,5,5,0,0,0,.5-3.38A38.42,38.42,0,0,0,83.73,165Z"/><path class="cls-2" d="M95.66,208.75a11.12,11.12,0,0,0-.75-3.79c-.8-1.59-2.06-1.7-3.12-.31-.34.45-.41,1.15-1,1.29s-.83.71-.89,1.29a11.35,11.35,0,0,0-.16,2.59c.36,2.65,1.15,5.09,3.88,6.24.92.39,1.47.08,1.79-.85a12.41,12.41,0,0,0,.31-4.29A17.42,17.42,0,0,0,95.66,208.75Z"/><path class="cls-3" d="M127.12,276.76c-1.08-2.34-1.84-2.22-2.6-2.81-.11-.08-.14-.24-.2-.36a5.37,5.37,0,0,1,0-4.57,12,12,0,0,0,0-8.27,16.75,16.75,0,0,0-2.08-5,3,3,0,0,1-.32-2.32c.6-4.27-1.34-7.37-4.12-10.24a45.1,45.1,0,0,1-4.46-5.51,88,88,0,0,0-6.08-7.55,20.54,20.54,0,0,1-5.07-11.74c-.44-4-1-8-1.12-12.12-.06-2.07-1.23-3.71-2.18-5.36a20,20,0,0,0-3.2-4.06,10.68,10.68,0,0,1-2.57-4.41,26.45,26.45,0,0,1-1.31-9.38c.16-5.85.35-11.76-1.31-17.5A30.05,30.05,0,0,0,85.7,156a11.43,11.43,0,0,1-2.35-6.84,59.67,59.67,0,0,1,2.89-16.9,45.37,45.37,0,0,0,1.33-18.71q-1-7.77-2.14-15.52a44.48,44.48,0,0,1-.05-7.83,36.62,36.62,0,0,0,.05-3.92c-.14-2.13.83-4.09,1-6.19a10.72,10.72,0,0,0-.58-6.14,3.4,3.4,0,0,0-2.73-2.18c-2-.35-5.24,1.52-6.24,3.41-.51,1-.79,2-1.2,3C74.82,80.23,72.6,81,71,79.67a26,26,0,0,1-7.58-9.56c-1.78-4-4.14-5.27-8.29-4.44-.88.18-1.11.46-1.11,1.39,0,3.8.71,7.52.93,11.29a4.83,4.83,0,0,0,.59,1.85c2.78,5.88,7.12,10.43,11.9,14.59,2.34,2,4.83,3.93,5.69,7.13a37,37,0,0,1,1.37,11,18,18,0,0,1-.87,3.77c-.33,1.3-1.13,1.38-2.09,1.23a7,7,0,0,1-3.44-2.06c-3.12-2.73-5-6.45-7.49-9.71-3-3.93-4.81-8.54-6.72-13.08-.65-1.53-1.44-3-2.19-4.45a18.87,18.87,0,0,1-1.84-6A43.16,43.16,0,0,0,47.33,73c-1.3-3.38-2-7-3.1-10.39-1.41-4.28-3.59-6-6.86-5.31A1.81,1.81,0,0,0,36.1,58,13.18,13.18,0,0,0,33.28,65a11.72,11.72,0,0,1-1.09,4c-.42.93-.71,1.83-2,2a1.9,1.9,0,0,0-1.54,1.37,11.28,11.28,0,0,0-.78,3.36,21.58,21.58,0,0,0,2.78,10.09c1.18,2.2,2.56,4.27,3.84,6.39s2.48,4.21,3.91,6.21c1.6,2.23,3.37,4.29,5,6.44a85.34,85.34,0,0,1,5.68,8.69c2.85,4.78,6.94,8.63,9.53,13.63a76.31,76.31,0,0,1,4.14,10,3.87,3.87,0,0,1-.1,2.78c-.32.78-.85,1.19-1.67.65a9.69,9.69,0,0,1-2.78-2.35c-2.32-3.38-4.61-6.78-6.83-10.23-2.68-4.17-4.44-8.87-7.26-13-1.55-2.26-4.37-7-6.14-9.1-2.19-2.61-5.41-3.5-8.61-3.89a5.15,5.15,0,0,0-5.08,2,30.78,30.78,0,0,0-4.21,8.25c-1.47,4-1.18,8.53-3.61,12.23a1.29,1.29,0,0,0-.05.21,15.56,15.56,0,0,0,1.8,11.94,31.8,31.8,0,0,0,11.31,11.27c1.77,1,3.48,2.24,5.22,3.25s3.64,2.2,5.4,3.38c2.85,1.91,5.61,3.95,8.84,5.19A38.81,38.81,0,0,1,59,165.52a12.49,12.49,0,0,1,1.92,1.71c3.57,4.27,6.33,8.89,6.46,14.78a30.81,30.81,0,0,1-.89,7.64c-.72,3.11-1.76,6.09-2.7,9.11a9,9,0,0,0-.34,4.51,33.61,33.61,0,0,0,5.28,13,8.3,8.3,0,0,0,6.08,3.83,10.61,10.61,0,0,1,5.51,2.13,16.15,16.15,0,0,0,3.54,2c3.87,1.8,8.1,2.66,11.84,4.83a10.93,10.93,0,0,1,4.5,4.46c.6,1.15,1.16,2.31,1.85,3.42,2,3.19,3.82,6.46,5.71,9.71a3.42,3.42,0,0,1,.37,3.11c-1.86,4.82-.66,9,2.79,12.54a9,9,0,0,1,2.75,5.46,15.08,15.08,0,0,0,3.33,8.56c1.49,1.71,3.37,3.06,4.58,5,.09.14.35.19.55.25a4.25,4.25,0,0,0,3.11-.11S128.64,280,127.12,276.76ZM30.77,138.7c-.16,1.22-.77,1.56-1.71.73-3.24-2.86-5.81-6.15-5.79-10.85,0-1.21.41-1.6,1.52-1.42a3.74,3.74,0,0,1,2.31,1c2.24,2.48,3.15,5.58,3.8,8.79C30.86,137.55,30.85,138.13,30.77,138.7Zm51.45,73.08a3.69,3.69,0,0,1-5.64,1c-4.65-3.57-5.74-8.74-6.27-14.19a7.81,7.81,0,0,1,.56-3,3.39,3.39,0,0,1,4.55-2,9.69,9.69,0,0,1,3.29,2,14.56,14.56,0,0,1,5.15,10.17A15.31,15.31,0,0,1,82.22,211.78Zm3.11-35.92a2,2,0,0,1-3,.85,10.55,10.55,0,0,1-4.22-13.39A10.69,10.69,0,0,1,80,161.06c.28-.35.58-.49.89-.22s0,.38-.26.44-.42,0-.5.58c2.08,0,3,1.42,3.61,3.09a38.42,38.42,0,0,1,2.1,7.53A5,5,0,0,1,85.33,175.86Zm10,39.35c-.32.93-.87,1.24-1.79.85-2.73-1.15-3.52-3.59-3.88-6.24a11.35,11.35,0,0,1,.16-2.59c.06-.59.15-1.13.89-1.29s.7-.85,1-1.29c1.06-1.4,2.32-1.28,3.12.31a11.12,11.12,0,0,1,.75,3.79,17.42,17.42,0,0,1,0,2.17A12.41,12.41,0,0,1,95.37,215.21Z"/></svg>