<svg id="Layer_1" data-name="Layer 1" xmlns="http://www.w3.org/2000/svg" width="10cm" height="10cm" viewBox="0 0 283.46 283.46"><defs><style>.cls-1{fill:#a03232;}</style></defs><title>tang -  gaffeltang</title><path class="cls-1" d="M119.32,245.68c2.1,2.68,4.86,2.88,7.41,3.53.54.14,1.16,0,1.7.13a1.89,1.89,0,0,1,1.43,2.17c-.22,1.75-2.35,3.4-4.14,3.51a9.61,9.61,0,0,1-6.32-1.89c-2.56-1.85-5.4-2.1-8.38-1.91a2.72,2.72,0,0,0-1.36.38c-4.44,3.24-9.77,5.23-13.36,9.66-.65.81-1.46,1.49-2.18,2.26a6.6,6.6,0,0,1-4.48,2.08c-3.78.36-7.31-.59-10.8-1.8-1.5-.52-1.61-1.82-.16-2.69a21.64,21.64,0,0,1,4.42-2,11.81,11.81,0,0,0,4.83-2.92A46.74,46.74,0,0,1,99.22,248a17.18,17.18,0,0,0,5-3.24,5.49,5.49,0,0,1,2-1c1.22-.53,2.47-1,3.71-1.49,2.13-.84,3.43-2.43,4.7-4.33,4-5.9,4.64-12.81,6.31-19.41,2.31-9.13,3.24-18.52,4.65-27.82.73-4.74-.09-9.48-.34-14.22a24.68,24.68,0,0,0-2.3-8.71c-1.87-4.2-5-7.33-8-10.64-.76-.85-1.55-1.68-2.27-2.56A46.51,46.51,0,0,0,94,141c-4.57-1.9-9-4-13.53-6.11a61.72,61.72,0,0,0-20-5.16c-9-.91-18-1.29-26.92-2.86-4.18-.74-8.36-1.71-12.7-1.7A35.74,35.74,0,0,1,13.5,124a5.74,5.74,0,0,1-2.14-1.31,1.64,1.64,0,0,1-.13-2.52,3.4,3.4,0,0,1,3.86-1.21c5,1.68,10.29,1.76,15.42,2.68a142.27,142.27,0,0,0,18.32,2.52c4.46.21,8.87.74,13.31,1a71.56,71.56,0,0,1,19.7,4.3,194.09,194.09,0,0,1,19.9,8.59c1.59.79,3.14,1.66,5,2.64a39.38,39.38,0,0,0-2.62-10.48c-1.5-3.59-3.82-6.76-5.38-10.34a12,12,0,0,0-1.92-2.47c-2.39-2.93-4.85-5.83-7.18-8.82a7.33,7.33,0,0,0-5.4-3c-5.78-.67-11.57-1-17.35-1.2q-9.39-.24-18.81.27c-4.27.23-8.56.19-12.83.56a8.29,8.29,0,0,1-2,0,1.42,1.42,0,0,1-.84-2.53,5,5,0,0,1,3.23-1.58c8.07-.44,16.12-1.09,24.19-1.47a101.53,101.53,0,0,1,21.81,1c-1.66-2.12-3-3.93-4.49-5.71a63.12,63.12,0,0,1-7.06-11.69c-1.58-3.12-3.66-6-5.29-9.08-3.67-7-7.3-13.94-9.64-21.5-.39-1.26-.62-2.58-1-3.86s.24-2,1.37-2.38q3.3-1.12,4.3,2.26c1.69,5.77,4.55,11,7.06,16.85,2.66-3.38,6.24-2.89,9.66-3,1.33,0,2.66-.07,4-.22C95,60.67,108.36,64,120.68,71.44c4.5,2.74,8.45,6.23,9.69,11.8.07.34.4.61.6.9,1.11-.37,1.41-1.33,1.9-2.12a47,47,0,0,0,7.07-26.35c-.1-4-.25-8-.42-12a92.32,92.32,0,0,1,.56-9.95c.35-5.54,3-10.12,5.72-14.71.92-1.54,1.93-1.67,3.07-.25.69.87,1.62,1.73.74,3.21-4.77,8.07-5,16.94-4.37,26a88.45,88.45,0,0,1-.34,18.12c-.73,5.54-3,10.73-5.71,15.68-4,7.26-6,14.91-4.52,23.27a26.19,26.19,0,0,1,0,9.09,7.32,7.32,0,0,0-.17,2.85c.29-.07.62,0,.81-.2A158.79,158.79,0,0,1,152.79,105a76.86,76.86,0,0,1,10.32-5.42c7.6-3,15.23-5.9,23.07-8.19,3.91-1.15,7.93-1.9,11.9-2.84a4,4,0,0,1,3.66,1.16c1.42,1.26,1.12,2.49-.75,3-4,1-7.94,1.91-11.88,3-2.3.61-4.57,1.35-6.81,2.14-7.07,2.51-14.26,4.75-20.91,8.29a150,150,0,0,0-22.24,14.25c-2.1,1.65-3.52,4-5.85,5.4-.67.39-.57,1.15-.69,1.79a58.48,58.48,0,0,0-.3,16.5c.65,6.34,1.67,12.66,1.85,19,.2,7-.37,14-.61,21.28,1.12-.77,2.29-1.52,3.38-2.35a47.71,47.71,0,0,1,8.77-4.7c5.79-2.69,11.83-4.68,17.78-6.94,1.42-.54,2.77-1.27,4.16-1.89A7,7,0,0,0,172,162c.55-6.66-1.31-12.79-3.89-18.75-1.69-3.92-3.65-7.73-5.47-11.59a22.8,22.8,0,0,0-2.89-3.87c-1.09-1.44-2.22-2.84-3.38-4.22a16.69,16.69,0,0,1-3.66-9.43c-.09-.86-.33-1.77.69-2.23a2.73,2.73,0,0,1,2.71,0,4.72,4.72,0,0,1,2.33,3.73c.35,3.19,2.43,5.26,4.31,7.52.82,1,1.58,1.2,2.65.39,2-1.48,4.15-2.74,6-4.39,6.61-5.92,14-10.87,20.91-16.35a64.1,64.1,0,0,1,10.9-7.28,15.79,15.79,0,0,1,2.34-1.05,3.55,3.55,0,0,1,4,2.32,1.49,1.49,0,0,1-.55,1.53,10.11,10.11,0,0,1-1.68,1.06c-4.64,2.48-8.65,5.86-12.81,9-3.24,2.45-6.54,4.8-9.89,7.11a42.51,42.51,0,0,0-4.81,4,111.68,111.68,0,0,1-10.34,8.07c-1.67,1.23-1.92,1.57-1.14,3.42,1,2.35,2.08,4.68,3.25,6.95,2.44,4.73,4.49,9.63,6.55,14.53,1.36,3.22,1.39,6.62,1.45,10,0,2.45.1,2.5,2.47,2.54s4.9.66,7.35.86c1.2.09,1.55,1.16,2.53,1.53a142.88,142.88,0,0,0,16.44,4.64c2.64.62,5.32.18,8,0,3.9-.2,5.7-3.25,5.87-6.19.16-2.56.32-5.12.39-7.69.13-5.05,1.47-9.94,1.91-15,.32-3.61,1.88-7,3.17-10.34a12.45,12.45,0,0,0,.69-6.14c-.15-1.32-.4-2.63-.5-4-.14-1.67.84-2.45,2.46-2.08a4.83,4.83,0,0,1,3.94,4.53,30.43,30.43,0,0,1-1.65,14,52.16,52.16,0,0,0-3,15.34c-.18,3.6-.93,7.15-.78,10.78a9.81,9.81,0,0,0,.22,2c1.16,4.69,1.7,4.71,5.86,5.84,4.52,1.22,8.68-.43,12.81-1.67,1.44-.43,2.92-.52,4.36-1,5.79-2,11.05-5,16.29-8.08,1.66-1,3.31-.6,4.17,1.77a2.16,2.16,0,0,1-.44,2.39,5.23,5.23,0,0,1-1,1c-3.92,2.11-7.35,5.07-11.59,6.58-3.84,1.36-7.52,3.17-11.61,3.84-3.46.56-6.92,1.23-10.43.6-3.85-.69-7.58.12-11.33.73a1,1,0,0,1-.28.07c-5.2-.36-10.55.59-15.54-1.7a2.63,2.63,0,0,0-.82-.22c-6-.63-11.75-2.69-17.22-4.91-5.07-2.07-9.34-1-14,.46-3.33,1.07-6.72,2-10.15,2.75a105,105,0,0,0-12,3.62c-3.13,1.12-6.38,1.88-9.46,3.19a32.2,32.2,0,0,0-12,9,12.28,12.28,0,0,0-2.63,7.12c-.41,4.61-1.13,9.26-.13,13.92.61,2.84,1.35,3.61,4.28,3.28a27,27,0,0,0,5.54-1.22c6.21-2.06,12.41-4.17,17.91-7.87a18.17,18.17,0,0,0,5.89-7.2c1.74-3.47,4.37-6.22,6.58-9.3s5.18-5,7.33-7.93a5.25,5.25,0,0,1,3-2.14,2.51,2.51,0,0,1,3,1.06c.71,1.08-.19,1.66-.75,2.43-3.32,4.6-7.48,8.5-10.87,13a13.47,13.47,0,0,0-2,3.41,30.93,30.93,0,0,1-12.34,15.51,33,33,0,0,1-6.23,2.81,72.37,72.37,0,0,1-7.29,2.42c-4.69,1.23-9.05,3.31-13.47,5.21a8.54,8.54,0,0,0-4.23,4.07c-1.71,3.38-3.39,6.77-5.07,10.17C122.31,242.34,121.43,244.35,119.32,245.68ZM125,152.85a15.09,15.09,0,0,0,0-2.87c-.9-4.25,0-8.53-.2-12.8-.18-5.21,1.08-10.36,2-15.5a58.23,58.23,0,0,0,1.08-7.62c.24-5.6.46-11.22-.6-16.79-1.22-6.39-2.9-12.58-7.51-17.52a12.19,12.19,0,0,1-.88-1.13,17.19,17.19,0,0,0-8.44-6.51c-7.73-2.81-15.79-3.19-23.89-3.22-3.61,0-7.23.7-10.82.23-2.22-.29-4.36.45-7-.28a53,53,0,0,1,2.62,4.66c1.72,3.06,3.62,6,5.21,9.15,2.57,5.09,5.44,10.09,9.8,13.87,3.3,2.87,6,6.27,9.07,9.35,2,2,3.32,4.59,5.21,6.74A50.84,50.84,0,0,1,111,131.75a39.44,39.44,0,0,0,6.74,13.36C119.86,147.8,121.55,151,125,152.85Z"/><path class="cls-1" d="M150.73,98.44c-.28-1.87.33-3.73.7-5.56A95,95,0,0,0,152.69,79c.06-1.17-.25-2.61,1.45-3,1.28-.3,2.82.69,3.55,2.23a4.84,4.84,0,0,1,.44,3.3,2.76,2.76,0,0,0-.16.54c0,5.87-1.37,11.61-1.52,17.46-.07,2.5,0,2.5-2.55,3a11.07,11.07,0,0,0-1.35.42,1.15,1.15,0,0,1-1.63-1A9.82,9.82,0,0,1,150.73,98.44Z"/><path class="cls-1" d="M51.59,71.64a2.66,2.66,0,0,1-3.24-1.45,2.71,2.71,0,0,1,1.47-3.91A15,15,0,0,1,52,65.79c2.86-.56,4.4.7,4.31,3.58a1.9,1.9,0,0,1-1.43,1.9A5.64,5.64,0,0,1,51.59,71.64Z"/></svg>